<svg width="134" height="31" viewBox="0 0 134 31" fill="none" xmlns="http://www.w3.org/2000/svg">
<path d="M120.621 10.9899V18.4299C120.621 18.6366 120.648 18.7866 120.701 18.8799C120.761 18.9733 120.851 19.0399 120.971 19.0799L121.341 19.1799C121.548 19.2666 121.651 19.3966 121.651 19.5699C121.651 19.8566 121.471 19.9999 121.111 19.9999H117.241C117.061 19.9999 116.928 19.9633 116.841 19.8899C116.755 19.8166 116.711 19.7199 116.711 19.5999C116.711 19.4999 116.738 19.4166 116.791 19.3499C116.851 19.2833 116.945 19.2266 117.071 19.1799L117.471 19.0799C117.591 19.0399 117.678 18.9733 117.731 18.8799C117.791 18.7866 117.821 18.6366 117.821 18.4299V12.6499C117.821 12.4833 117.795 12.3633 117.741 12.2899C117.695 12.2166 117.615 12.1733 117.501 12.1599L116.971 12.1199C116.851 12.0933 116.765 12.0499 116.711 11.9899C116.665 11.9299 116.641 11.8533 116.641 11.7599C116.641 11.6533 116.671 11.5699 116.731 11.5099C116.798 11.4433 116.918 11.3766 117.091 11.3099L118.981 10.6299C119.228 10.5366 119.425 10.4699 119.571 10.4299C119.725 10.3899 119.868 10.3699 120.001 10.3699C120.208 10.3699 120.361 10.4266 120.461 10.5399C120.568 10.6533 120.621 10.8033 120.621 10.9899ZM120.311 13.2099L119.871 12.7499L120.261 12.3999C121.101 11.6333 121.835 11.0966 122.461 10.7899C123.088 10.4766 123.678 10.3199 124.231 10.3199C125.085 10.3199 125.771 10.5933 126.291 11.1399C126.811 11.6799 127.071 12.4099 127.071 13.3299V18.3999C127.071 18.6133 127.101 18.7699 127.161 18.8699C127.228 18.9699 127.325 19.0399 127.451 19.0799L127.811 19.1799C127.931 19.2266 128.018 19.2833 128.071 19.3499C128.131 19.4166 128.161 19.4999 128.161 19.5999C128.161 19.7199 128.118 19.8166 128.031 19.8899C127.951 19.9633 127.821 19.9999 127.641 19.9999H123.761C123.401 19.9999 123.221 19.8566 123.221 19.5699C123.221 19.3966 123.321 19.2666 123.521 19.1799L123.911 19.0799C124.038 19.0399 124.128 18.9699 124.181 18.8699C124.241 18.7699 124.271 18.6133 124.271 18.3999V13.7299C124.271 13.1433 124.128 12.7066 123.841 12.4199C123.561 12.1266 123.181 11.9799 122.701 11.9799C122.401 11.9799 122.081 12.0533 121.741 12.1999C121.408 12.3399 121.068 12.5599 120.721 12.8599L120.311 13.2099Z" fill="#005F2E"/>
<path d="M111.619 18.74V18.54L111.439 18.5V12.51C111.439 12.0433 111.319 11.6833 111.079 11.43C110.839 11.17 110.505 11.04 110.079 11.04C109.685 11.04 109.382 11.1266 109.169 11.3C108.955 11.4666 108.849 11.67 108.849 11.91V12.8C108.849 13.1933 108.715 13.5 108.449 13.72C108.182 13.94 107.809 14.05 107.329 14.05C106.915 14.05 106.602 13.9533 106.389 13.76C106.182 13.56 106.079 13.29 106.079 12.95C106.079 12.53 106.249 12.12 106.589 11.72C106.935 11.32 107.442 10.99 108.109 10.73C108.782 10.4633 109.609 10.33 110.589 10.33C111.809 10.33 112.715 10.58 113.309 11.08C113.909 11.5733 114.209 12.24 114.209 13.08V18.28C114.209 18.4733 114.245 18.6166 114.319 18.71C114.399 18.8033 114.509 18.85 114.649 18.85C114.795 18.85 114.905 18.8166 114.979 18.75C115.052 18.6766 115.112 18.6033 115.159 18.53C115.199 18.4833 115.239 18.4466 115.279 18.42C115.319 18.3866 115.365 18.37 115.419 18.37C115.499 18.37 115.555 18.4 115.589 18.46C115.629 18.52 115.649 18.5966 115.649 18.69C115.649 18.91 115.569 19.14 115.409 19.38C115.255 19.62 115.025 19.8233 114.719 19.99C114.412 20.1566 114.029 20.24 113.569 20.24C112.975 20.24 112.502 20.1066 112.149 19.84C111.795 19.5733 111.619 19.2066 111.619 18.74ZM105.649 17.91C105.649 17.0833 106.019 16.4166 106.759 15.91C107.499 15.3966 108.535 15.14 109.869 15.14C110.302 15.14 110.692 15.1766 111.039 15.25C111.385 15.3233 111.685 15.42 111.939 15.54L111.729 16.17C111.495 16.0633 111.262 15.98 111.029 15.92C110.795 15.86 110.539 15.83 110.259 15.83C109.712 15.83 109.282 15.9733 108.969 16.26C108.662 16.54 108.509 16.9333 108.509 17.44C108.509 17.9466 108.639 18.3333 108.899 18.6C109.165 18.8666 109.509 19 109.929 19C110.282 19 110.622 18.92 110.949 18.76C111.282 18.5933 111.562 18.3633 111.789 18.07L111.999 18.63C111.632 19.1433 111.142 19.54 110.529 19.82C109.915 20.1 109.265 20.24 108.579 20.24C107.712 20.24 107.005 20.0266 106.459 19.6C105.919 19.1666 105.649 18.6033 105.649 17.91Z" fill="#005F2E"/>
<path d="M104.113 14.1099C104.113 14.4566 104.013 14.7233 103.813 14.9099C103.62 15.0966 103.336 15.1899 102.963 15.1899H96.7231V14.4399H100.813C101.14 14.4399 101.303 14.2899 101.303 13.9899C101.303 13.1033 101.143 12.4299 100.823 11.9699C100.503 11.5099 100.076 11.2799 99.5431 11.2799C99.1298 11.2799 98.7631 11.4066 98.4431 11.6599C98.1298 11.9066 97.8798 12.2699 97.6931 12.7499C97.5131 13.2233 97.4231 13.7933 97.4231 14.4599C97.4231 15.7533 97.7265 16.7233 98.3331 17.3699C98.9398 18.0166 99.7431 18.3399 100.743 18.3399C101.336 18.3399 101.853 18.2199 102.293 17.9799C102.74 17.7399 103.083 17.3999 103.323 16.9599C103.436 16.8333 103.526 16.7466 103.593 16.6999C103.666 16.6533 103.74 16.6299 103.813 16.6299C103.913 16.6299 103.986 16.6766 104.033 16.7699C104.08 16.8633 104.103 16.9766 104.103 17.1099C104.076 17.6766 103.876 18.1999 103.503 18.6799C103.13 19.1533 102.626 19.5333 101.993 19.8199C101.366 20.1066 100.643 20.2499 99.8231 20.2499C98.8631 20.2499 98.0131 20.0533 97.2731 19.6599C96.5331 19.2599 95.9498 18.7033 95.5231 17.9899C95.1031 17.2766 94.8931 16.4399 94.8931 15.4799C94.8931 14.4733 95.0931 13.5833 95.4931 12.8099C95.8998 12.0299 96.4765 11.4199 97.2231 10.9799C97.9765 10.5399 98.8731 10.3199 99.9131 10.3199C100.793 10.3199 101.546 10.4833 102.173 10.8099C102.806 11.1299 103.286 11.5766 103.613 12.1499C103.946 12.7166 104.113 13.3699 104.113 14.1099Z" fill="#005F2E"/>
<path d="M89.7999 18.35L89.7199 18.3V7.41001C89.7199 7.25 89.6932 7.13334 89.6399 7.06001C89.5865 6.98667 89.5032 6.94 89.3899 6.92L88.8599 6.88001C88.7465 6.85334 88.6632 6.81334 88.6099 6.76C88.5565 6.7 88.5299 6.62334 88.5299 6.53C88.5299 6.42334 88.5599 6.33667 88.6199 6.27001C88.6865 6.20334 88.8065 6.13667 88.9799 6.07001L90.8799 5.39001C91.1199 5.29667 91.3165 5.23001 91.4699 5.19001C91.6232 5.15001 91.7632 5.13 91.8899 5.13C92.0965 5.13 92.2499 5.18667 92.3499 5.30001C92.4565 5.41334 92.5099 5.56334 92.5099 5.75V18.43C92.5099 18.6367 92.5399 18.7867 92.5999 18.88C92.6599 18.9733 92.7499 19.04 92.8699 19.08L93.2499 19.18C93.3765 19.22 93.4665 19.2767 93.5199 19.35C93.5799 19.4167 93.6099 19.5 93.6099 19.6C93.6099 19.72 93.5665 19.8167 93.4799 19.89C93.3932 19.9633 93.2599 20 93.0799 20H90.9799C90.6465 20 90.3665 19.8933 90.1399 19.68C89.9132 19.46 89.7999 19.1733 89.7999 18.82V18.35ZM82.5399 15.54C82.5399 14.4733 82.7499 13.55 83.1699 12.77C83.5965 11.99 84.1699 11.3867 84.8899 10.96C85.6165 10.5333 86.4265 10.32 87.3199 10.32C88.1132 10.32 88.8099 10.5033 89.4099 10.87C90.0165 11.2367 90.5165 11.7733 90.9099 12.48L90.2499 13.03C89.9232 12.4967 89.5565 12.0967 89.1499 11.83C88.7432 11.5567 88.3032 11.42 87.8299 11.42C87.3765 11.42 86.9699 11.5567 86.6099 11.83C86.2499 12.0967 85.9665 12.5133 85.7599 13.08C85.5532 13.64 85.4499 14.36 85.4499 15.24C85.4499 16.0533 85.5499 16.73 85.7499 17.27C85.9499 17.8033 86.2232 18.2033 86.5699 18.47C86.9232 18.73 87.3232 18.86 87.7699 18.86C88.2499 18.86 88.6965 18.7167 89.1099 18.43C89.5299 18.1367 89.9165 17.6933 90.2699 17.1L90.7099 17.66C90.1832 18.4733 89.5799 19.11 88.8999 19.57C88.2199 20.0233 87.4665 20.25 86.6399 20.25C85.8532 20.25 85.1499 20.05 84.5299 19.65C83.9165 19.2433 83.4299 18.6867 83.0699 17.98C82.7165 17.2733 82.5399 16.46 82.5399 15.54Z" fill="#005F2E"/>
<path d="M69.1395 13.21L68.6995 12.75L69.0895 12.4C69.9295 11.6333 70.6629 11.0967 71.2895 10.79C71.9162 10.4767 72.5062 10.32 73.0595 10.32C73.9129 10.32 74.5995 10.5933 75.1195 11.14C75.6395 11.68 75.8995 12.41 75.8995 13.33V18.4C75.8995 18.6133 75.9295 18.77 75.9895 18.87C76.0562 18.97 76.1529 19.04 76.2795 19.08L76.6395 19.18C76.7595 19.2267 76.8462 19.2833 76.8995 19.35C76.9595 19.4167 76.9895 19.5 76.9895 19.6C76.9895 19.72 76.9462 19.8167 76.8595 19.89C76.7795 19.9633 76.6495 20 76.4695 20H72.5895C72.2295 20 72.0495 19.8567 72.0495 19.57C72.0495 19.3967 72.1495 19.2667 72.3495 19.18L72.7395 19.08C72.8662 19.04 72.9562 18.97 73.0095 18.87C73.0695 18.77 73.0995 18.6133 73.0995 18.4V13.73C73.0995 13.1433 72.9562 12.7067 72.6695 12.42C72.3895 12.1267 72.0095 11.98 71.5295 11.98C71.2295 11.98 70.9129 12.0533 70.5795 12.2C70.2462 12.34 69.9029 12.56 69.5495 12.86L69.1395 13.21ZM69.4495 5.75V18.43C69.4495 18.6367 69.4762 18.7867 69.5295 18.88C69.5895 18.9733 69.6795 19.04 69.7995 19.08L70.1695 19.18C70.3762 19.2667 70.4795 19.3967 70.4795 19.57C70.4795 19.8567 70.2995 20 69.9395 20H66.0695C65.8895 20 65.7562 19.9633 65.6695 19.89C65.5829 19.8167 65.5395 19.72 65.5395 19.6C65.5395 19.5 65.5695 19.4167 65.6295 19.35C65.6895 19.2833 65.7795 19.2267 65.8995 19.18L66.2995 19.08C66.4195 19.04 66.5062 18.9733 66.5595 18.88C66.6195 18.7867 66.6495 18.6367 66.6495 18.43V7.41001C66.6495 7.25 66.6229 7.13334 66.5695 7.06001C66.5229 6.98667 66.4429 6.94 66.3295 6.92L65.7995 6.88001C65.6795 6.85334 65.5929 6.81334 65.5395 6.76C65.4929 6.7 65.4695 6.62334 65.4695 6.53C65.4695 6.42334 65.4995 6.33667 65.5595 6.27001C65.6262 6.20334 65.7462 6.13667 65.9195 6.07001L67.8095 5.39001C68.0562 5.29667 68.2529 5.23001 68.3995 5.19001C68.5529 5.15001 68.6962 5.13 68.8295 5.13C69.0362 5.13 69.1895 5.18667 69.2895 5.30001C69.3962 5.41334 69.4495 5.56334 69.4495 5.75Z" fill="#005F2E"/>
<path d="M64.1189 13.0599C64.1189 13.4399 63.9856 13.7599 63.7189 14.0199C63.4589 14.2733 63.1089 14.3999 62.6689 14.3999C62.2423 14.3999 61.9156 14.2833 61.6889 14.0499C61.4689 13.8099 61.3589 13.4999 61.3589 13.1199V12.7899C61.3589 12.3299 61.2189 11.9633 60.9389 11.6899C60.6656 11.4166 60.2922 11.2799 59.8189 11.2799C59.3989 11.2799 59.0223 11.4066 58.6889 11.6599C58.3623 11.9133 58.1022 12.2766 57.9089 12.7499C57.7156 13.2233 57.6189 13.7899 57.6189 14.4499C57.6189 15.2899 57.7589 15.9999 58.0389 16.5799C58.3256 17.1533 58.7156 17.5899 59.2089 17.8899C59.7089 18.1833 60.2756 18.3299 60.9089 18.3299C61.4756 18.3299 61.9723 18.2133 62.3989 17.9799C62.8256 17.7466 63.1589 17.4166 63.3989 16.9899C63.5123 16.8633 63.6023 16.7766 63.6689 16.7299C63.7423 16.6833 63.8156 16.6599 63.8889 16.6599C63.9956 16.6599 64.0689 16.7066 64.1089 16.7999C64.1556 16.8933 64.1789 17.0033 64.1789 17.1299C64.1389 17.6966 63.9356 18.2166 63.5689 18.6899C63.2089 19.1633 62.7223 19.5399 62.1089 19.8199C61.4956 20.0999 60.7889 20.2399 59.9889 20.2399C59.0356 20.2399 58.1889 20.0466 57.4489 19.6599C56.7089 19.2666 56.1289 18.7133 55.7089 17.9999C55.2889 17.2866 55.0789 16.4499 55.0789 15.4899C55.0789 14.5099 55.2889 13.6299 55.7089 12.8499C56.1289 12.0699 56.7223 11.4533 57.4889 10.9999C58.2556 10.5466 59.1523 10.3199 60.1789 10.3199C60.9923 10.3199 61.6923 10.4466 62.2789 10.6999C62.8656 10.9466 63.3189 11.2799 63.6389 11.6999C63.9589 12.1133 64.1189 12.5666 64.1189 13.0599Z" fill="#005F2E"/>
<path d="M50.0561 18.74V18.54L49.8761 18.5V12.51C49.8761 12.0433 49.7561 11.6833 49.5161 11.43C49.2761 11.17 48.9428 11.04 48.5161 11.04C48.1228 11.04 47.8194 11.1266 47.6061 11.3C47.3928 11.4666 47.2861 11.67 47.2861 11.91V12.8C47.2861 13.1933 47.1528 13.5 46.8861 13.72C46.6194 13.94 46.2461 14.05 45.7661 14.05C45.3528 14.05 45.0394 13.9533 44.8261 13.76C44.6194 13.56 44.5161 13.29 44.5161 12.95C44.5161 12.53 44.6861 12.12 45.0261 11.72C45.3728 11.32 45.8794 10.99 46.5461 10.73C47.2194 10.4633 48.0461 10.33 49.0261 10.33C50.2461 10.33 51.1528 10.58 51.7461 11.08C52.3461 11.5733 52.6461 12.24 52.6461 13.08V18.28C52.6461 18.4733 52.6828 18.6166 52.7561 18.71C52.8361 18.8033 52.9461 18.85 53.0861 18.85C53.2328 18.85 53.3428 18.8166 53.4161 18.75C53.4894 18.6766 53.5494 18.6033 53.5961 18.53C53.6361 18.4833 53.6761 18.4466 53.7161 18.42C53.7561 18.3866 53.8028 18.37 53.8561 18.37C53.9361 18.37 53.9928 18.4 54.0261 18.46C54.0661 18.52 54.0861 18.5966 54.0861 18.69C54.0861 18.91 54.0061 19.14 53.8461 19.38C53.6928 19.62 53.4628 19.8233 53.1561 19.99C52.8494 20.1566 52.4661 20.24 52.0061 20.24C51.4128 20.24 50.9394 20.1066 50.5861 19.84C50.2328 19.5733 50.0561 19.2066 50.0561 18.74ZM44.0861 17.91C44.0861 17.0833 44.4561 16.4166 45.1961 15.91C45.9361 15.3966 46.9728 15.14 48.3061 15.14C48.7394 15.14 49.1294 15.1766 49.4761 15.25C49.8228 15.3233 50.1228 15.42 50.3761 15.54L50.1661 16.17C49.9328 16.0633 49.6994 15.98 49.4661 15.92C49.2328 15.86 48.9761 15.83 48.6961 15.83C48.1494 15.83 47.7194 15.9733 47.4061 16.26C47.0994 16.54 46.9461 16.9333 46.9461 17.44C46.9461 17.9466 47.0761 18.3333 47.3361 18.6C47.6028 18.8666 47.9461 19 48.3661 19C48.7194 19 49.0594 18.92 49.3861 18.76C49.7194 18.5933 49.9994 18.3633 50.2261 18.07L50.4361 18.63C50.0694 19.1433 49.5794 19.54 48.9661 19.82C48.3528 20.1 47.7028 20.24 47.0161 20.24C46.1494 20.24 45.4428 20.0266 44.8961 19.6C44.3561 19.1666 44.0861 18.6033 44.0861 17.91Z" fill="#005F2E"/>
<path d="M37.3606 10.3199C38.3873 10.3199 39.2873 10.5299 40.0606 10.9499C40.8406 11.3699 41.4473 11.9566 41.8806 12.7099C42.314 13.4566 42.5306 14.3233 42.5306 15.3099C42.5306 16.2499 42.3073 17.0933 41.8606 17.8399C41.414 18.5799 40.794 19.1666 40.0006 19.5999C39.214 20.0333 38.3006 20.2499 37.2606 20.2499C36.2406 20.2499 35.3406 20.0366 34.5606 19.6099C33.7873 19.1833 33.1806 18.5966 32.7406 17.8499C32.3073 17.1033 32.0906 16.2433 32.0906 15.2699C32.0906 14.3166 32.314 13.4699 32.7606 12.7299C33.2073 11.9833 33.824 11.3966 34.6106 10.9699C35.404 10.5366 36.3206 10.3199 37.3606 10.3199ZM38.0606 19.2299C38.514 19.1566 38.8773 18.9466 39.1506 18.5999C39.4306 18.2533 39.6073 17.7733 39.6806 17.1599C39.7606 16.5466 39.7206 15.8066 39.5606 14.9399C39.4073 14.0733 39.184 13.3633 38.8906 12.8099C38.604 12.2499 38.2606 11.8466 37.8606 11.5999C37.4606 11.3466 37.0273 11.2599 36.5606 11.3399C36.1073 11.4066 35.7406 11.6166 35.4606 11.9699C35.1873 12.3166 35.014 12.7966 34.9406 13.4099C34.874 14.0233 34.9173 14.7633 35.0706 15.6299C35.2173 16.4899 35.4373 17.1999 35.7306 17.7599C36.024 18.3199 36.3673 18.7233 36.7606 18.9699C37.1606 19.2166 37.594 19.3033 38.0606 19.2299Z" fill="#005F2E"/>
<path d="M30.74 13.0599C30.74 13.4399 30.6067 13.7599 30.34 14.0199C30.08 14.2733 29.73 14.3999 29.29 14.3999C28.8633 14.3999 28.5367 14.2833 28.31 14.0499C28.09 13.8099 27.98 13.4999 27.98 13.1199V12.7899C27.98 12.3299 27.84 11.9633 27.56 11.6899C27.2867 11.4166 26.9133 11.2799 26.44 11.2799C26.02 11.2799 25.6433 11.4066 25.31 11.6599C24.9833 11.9133 24.7233 12.2766 24.53 12.7499C24.3367 13.2233 24.24 13.7899 24.24 14.4499C24.24 15.2899 24.38 15.9999 24.66 16.5799C24.9467 17.1533 25.3367 17.5899 25.83 17.8899C26.33 18.1833 26.8967 18.3299 27.53 18.3299C28.0967 18.3299 28.5933 18.2133 29.02 17.9799C29.4467 17.7466 29.78 17.4166 30.02 16.9899C30.1333 16.8633 30.2233 16.7766 30.29 16.7299C30.3633 16.6833 30.4367 16.6599 30.51 16.6599C30.6167 16.6599 30.69 16.7066 30.73 16.7999C30.7767 16.8933 30.8 17.0033 30.8 17.1299C30.76 17.6966 30.5567 18.2166 30.19 18.6899C29.83 19.1633 29.3433 19.5399 28.73 19.8199C28.1167 20.0999 27.41 20.2399 26.61 20.2399C25.6567 20.2399 24.81 20.0466 24.07 19.6599C23.33 19.2666 22.75 18.7133 22.33 17.9999C21.91 17.2866 21.7 16.4499 21.7 15.4899C21.7 14.5099 21.91 13.6299 22.33 12.8499C22.75 12.0699 23.3433 11.4533 24.11 10.9999C24.8767 10.5466 25.7733 10.3199 26.8 10.3199C27.6133 10.3199 28.3133 10.4466 28.9 10.6999C29.4867 10.9466 29.94 11.2799 30.26 11.6999C30.58 12.1133 30.74 12.5666 30.74 13.0599Z" fill="#005F2E"/>
<path d="M111.806 10.4316C112.432 10.5478 112.933 10.7637 113.309 11.0801C113.909 11.5734 114.209 12.2401 114.209 13.0801V18.2803C114.209 18.4734 114.245 18.6167 114.318 18.71C114.398 18.8033 114.509 18.8496 114.648 18.8496C114.795 18.8496 114.905 18.8166 114.979 18.75C115.052 18.6768 115.112 18.6035 115.158 18.5303C115.198 18.4837 115.238 18.4466 115.278 18.4199C115.318 18.3866 115.366 18.3701 115.419 18.3701C115.499 18.3702 115.556 18.4 115.589 18.46C115.629 18.5199 115.648 18.5971 115.648 18.6904C115.648 18.9103 115.568 19.14 115.408 19.3799C115.255 19.6198 115.025 19.8236 114.719 19.9902C114.412 20.1569 114.028 20.2402 113.568 20.2402C112.975 20.2402 112.502 20.1065 112.148 19.8398C111.95 19.6898 111.809 19.5073 111.722 19.2939C111.774 18.3558 112.076 17.2835 112.821 16.3125V15.1318L112.765 15.0596C112.001 14.0771 111.714 13.0114 111.654 12.127L111.642 11.7598L111.646 11.5537C111.659 11.2083 111.707 10.8277 111.806 10.4316ZM117.472 19.0801L117.486 19.126L117.483 19.1299L117.472 19.0801ZM127.077 18.5498C127.088 18.6883 127.116 18.7952 127.161 18.8701L127.217 18.9395C127.278 19.0032 127.356 19.0501 127.451 19.0801L127.642 19.1318L127.812 19.1797C127.931 19.2263 128.018 19.2831 128.071 19.3496C128.131 19.4162 128.161 19.4998 128.161 19.5996C128.161 19.7196 128.118 19.8163 128.031 19.8896C127.971 19.9447 127.883 19.9794 127.767 19.9932L127.642 20H123.762C123.402 20 123.222 19.8568 123.222 19.5703C123.222 19.397 123.321 19.2664 123.521 19.1797L123.911 19.0801C124.038 19.0401 124.128 18.9701 124.182 18.8701C124.227 18.7952 124.254 18.6883 124.266 18.5498L124.271 18.4004V13.7305C124.271 13.1439 124.128 12.7066 123.842 12.4199C123.562 12.1266 123.181 11.9805 122.701 11.9805C122.401 11.9805 122.081 12.0536 121.741 12.2002C121.408 12.3402 121.068 12.5604 120.722 12.8604L120.621 12.9453V18.4297C120.621 18.6362 120.648 18.7865 120.701 18.8799C120.761 18.9732 120.852 19.0401 120.972 19.0801L121.342 19.1797C121.548 19.2664 121.651 19.397 121.651 19.5703C121.651 19.8568 121.471 20 121.111 20H117.241C117.106 20 116.997 19.9797 116.915 19.9385L116.842 19.8896C116.755 19.8163 116.711 19.7196 116.711 19.5996C116.711 19.4998 116.738 19.4162 116.791 19.3496C116.851 19.283 116.945 19.2263 117.071 19.1797L117.472 19.0801C117.503 19.0696 117.532 19.0562 117.559 19.042L117.486 19.126L117.472 19.0801L117.483 19.1299L117.559 19.042C117.634 19.0022 117.692 18.9487 117.731 18.8799C117.791 18.7865 117.821 18.6363 117.821 18.4297V12.6504C117.821 12.4837 117.795 12.3634 117.741 12.29C117.695 12.2167 117.614 12.1735 117.501 12.1602L116.972 12.1201C116.852 12.0935 116.764 12.0502 116.711 11.9902C116.664 11.9302 116.642 11.8531 116.642 11.7598C116.642 11.6532 116.671 11.5697 116.731 11.5098C116.798 11.4431 116.919 11.3762 117.092 11.3096L118.981 10.6299C119.228 10.5366 119.425 10.4697 119.571 10.4297C119.724 10.3897 119.868 10.3702 120.001 10.3701C120.208 10.3701 120.361 10.4268 120.461 10.54C120.568 10.6534 120.621 10.8036 120.621 10.9902V12.0801C121.312 11.4822 121.925 11.0521 122.461 10.79C123.088 10.4767 123.678 10.3203 124.231 10.3203C125.085 10.3203 125.771 10.5932 126.291 11.1396C126.811 11.6796 127.071 12.4101 127.071 13.3301V18.4004L127.077 18.5498Z" fill="#005F2E"/>
<path d="M110.589 10.3301C111.809 10.3301 112.715 10.5801 113.309 11.0801C113.909 11.5734 114.209 12.2401 114.209 13.0801V18.2803C114.209 18.4734 114.245 18.6167 114.318 18.71C114.398 18.8033 114.509 18.8496 114.648 18.8496C114.795 18.8496 114.905 18.8166 114.979 18.75C115.052 18.6768 115.112 18.6035 115.158 18.5303C115.198 18.4837 115.238 18.4466 115.278 18.4199C115.318 18.3866 115.366 18.3701 115.419 18.3701C115.499 18.3702 115.556 18.4 115.589 18.46C115.629 18.5199 115.648 18.5971 115.648 18.6904C115.648 18.9103 115.568 19.14 115.408 19.3799C115.255 19.6198 115.025 19.8236 114.719 19.9902C114.412 20.1569 114.028 20.2402 113.568 20.2402C112.975 20.2402 112.502 20.1065 112.148 19.8398C111.876 19.6343 111.71 19.3692 111.647 19.0449C111.336 19.3616 110.964 19.6214 110.528 19.8203C109.915 20.1002 109.265 20.2402 108.578 20.2402C107.712 20.2402 107.006 20.0262 106.459 19.5996C105.919 19.1663 105.648 18.6034 105.648 17.9102C105.648 17.0835 106.019 16.4168 106.759 15.9102C107.499 15.3969 108.535 15.1397 109.868 15.1396C110.301 15.1396 110.692 15.1767 111.039 15.25C111.18 15.2798 111.313 15.315 111.438 15.3525V12.5098C111.438 12.0432 111.318 11.683 111.078 11.4297C110.838 11.17 110.505 11.04 110.078 11.04C109.685 11.0401 109.382 11.1267 109.169 11.2998C108.956 11.4665 108.849 11.6702 108.849 11.9102V12.7998C108.849 13.1931 108.715 13.4997 108.448 13.7197C108.182 13.9397 107.808 14.0498 107.328 14.0498C106.915 14.0497 106.602 13.953 106.389 13.7598C106.182 13.5598 106.078 13.2901 106.078 12.9502C106.078 12.5302 106.249 12.1197 106.589 11.7197C106.935 11.3199 107.442 10.9904 108.108 10.7305C108.782 10.4638 109.609 10.3301 110.589 10.3301ZM103.813 16.6299C103.913 16.63 103.987 16.6765 104.033 16.7695C104.08 16.8629 104.104 16.977 104.104 17.1104C104.077 17.6769 103.876 18.1998 103.503 18.6797C103.13 19.153 102.626 19.5336 101.993 19.8203C101.684 19.9616 101.352 20.067 100.996 20.1387C100.811 19.5637 100.696 18.9608 100.661 18.3379C100.688 18.3384 100.716 18.3398 100.743 18.3398C101.336 18.3398 101.853 18.2203 102.293 17.9805C102.74 17.7405 103.083 17.4 103.323 16.96C103.436 16.8335 103.526 16.7469 103.593 16.7002C103.666 16.6535 103.74 16.6299 103.813 16.6299ZM117.731 18.8799C117.791 18.7865 117.821 18.6363 117.821 18.4297V12.6504C117.821 12.4837 117.795 12.3634 117.741 12.29C117.695 12.2167 117.614 12.1735 117.501 12.1602L116.972 12.1201C116.852 12.0935 116.764 12.0502 116.711 11.9902C116.664 11.9302 116.642 11.8531 116.642 11.7598C116.642 11.6532 116.671 11.5697 116.731 11.5098C116.798 11.4431 116.919 11.3762 117.092 11.3096L118.842 10.6797C119.088 11.4527 119.209 12.2623 119.209 13.0801V15.001C119.446 15.2546 119.667 15.5403 119.861 15.8633C120.357 16.6733 120.557 17.4877 120.621 18.1631V18.4297C120.621 18.5449 120.631 18.6426 120.647 18.7227C120.645 19.1771 120.592 19.6037 120.503 20H117.241C117.061 20 116.928 19.9629 116.842 19.8896C116.755 19.8163 116.711 19.7196 116.711 19.5996C116.711 19.4998 116.738 19.4162 116.791 19.3496C116.851 19.283 116.945 19.2263 117.071 19.1797L117.472 19.0801C117.592 19.0401 117.678 18.9732 117.731 18.8799ZM110.259 15.8301C109.712 15.8301 109.282 15.9732 108.969 16.2598C108.662 16.5398 108.509 16.9338 108.509 17.4404C108.509 17.9467 108.639 18.333 108.898 18.5996C109.165 18.8663 109.509 19 109.929 19C110.282 19 110.622 18.9197 110.948 18.7598C111.127 18.6703 111.29 18.5616 111.438 18.4355V16.0498C111.302 15.9986 111.165 15.9551 111.028 15.9199C110.795 15.86 110.539 15.8301 110.259 15.8301ZM101.533 10.5488C101.759 10.6198 101.973 10.7053 102.173 10.8096C102.806 11.1296 103.287 11.5771 103.613 12.1504C103.946 12.717 104.113 13.3705 104.113 14.1104C104.113 14.4568 104.013 14.7236 103.813 14.9102C103.62 15.0968 103.336 15.1904 102.963 15.1904H101.162C101.219 15.0482 101.278 14.9078 101.344 14.7705C101.295 14.6075 101.253 14.4446 101.219 14.2822C101.274 14.2097 101.303 14.1133 101.303 13.9902C101.303 13.4078 101.232 12.9179 101.094 12.5195C101.14 11.804 101.3 11.1456 101.533 10.5488Z" fill="#005F2E"/>
<path d="M99.9131 10.3203C100.793 10.3203 101.546 10.483 102.173 10.8096C102.806 11.1296 103.287 11.5771 103.613 12.1504C103.946 12.717 104.113 13.3705 104.113 14.1104C104.113 14.4568 104.013 14.7236 103.813 14.9102C103.62 15.0968 103.336 15.1904 102.963 15.1904H97.459C97.5553 16.1249 97.8465 16.8515 98.333 17.3701C98.9397 18.0168 99.7432 18.3398 100.743 18.3398C101.336 18.3398 101.853 18.2203 102.293 17.9805C102.74 17.7405 103.083 17.4 103.323 16.96C103.436 16.8335 103.526 16.7469 103.593 16.7002C103.666 16.6535 103.74 16.6299 103.813 16.6299C103.913 16.63 103.987 16.6765 104.033 16.7695C104.08 16.8629 104.104 16.977 104.104 17.1104C104.077 17.6769 103.876 18.1998 103.503 18.6797C103.13 19.153 102.626 19.5336 101.993 19.8203C101.367 20.1069 100.643 20.25 99.8232 20.25C98.8634 20.25 98.0134 20.0534 97.2734 19.6602C96.5335 19.2602 95.9501 18.7034 95.5234 17.9902C95.1035 17.277 94.8936 16.4403 94.8936 15.4805C94.8936 14.4738 95.0932 13.5829 95.4932 12.8096C95.8997 12.0299 96.4764 11.4204 97.2227 10.9805C97.976 10.5405 98.8731 10.3203 99.9131 10.3203ZM109.023 15.1797C108.997 15.3388 108.963 15.5001 108.923 15.6631C108.97 15.8494 109.007 16.0308 109.034 16.2061C109.012 16.2239 108.99 16.2407 108.969 16.2598C108.662 16.5398 108.509 16.9338 108.509 17.4404C108.509 17.9467 108.639 18.333 108.898 18.5996C108.907 18.6085 108.918 18.6164 108.927 18.625C108.803 19.1878 108.619 19.7254 108.381 20.2334C107.604 20.203 106.963 19.9933 106.459 19.5996C105.919 19.1663 105.648 18.6034 105.648 17.9102C105.648 17.0835 106.019 16.4168 106.759 15.9102C107.334 15.511 108.089 15.2684 109.023 15.1797ZM92.5098 18.4297C92.5098 18.6362 92.5397 18.7865 92.5996 18.8799C92.6596 18.9732 92.7501 19.0401 92.8701 19.0801L93.25 19.1797C93.3764 19.2196 93.4662 19.2765 93.5195 19.3496C93.5795 19.4162 93.6093 19.4998 93.6094 19.5996C93.6094 19.7196 93.5662 19.8163 93.4795 19.8896C93.3929 19.9629 93.2599 20 93.0801 20H90.9795C90.9617 20 90.9442 19.9977 90.9268 19.9971C90.1963 18.5482 89.8936 17.0013 89.8936 15.4805L89.8975 15.165C89.9376 13.5875 90.2822 12.0005 91.0518 10.5127L91.0557 10.5059L91.0596 10.498C91.4553 9.73911 91.9416 9.04665 92.5098 8.42871V18.4297ZM99.543 11.2803C99.1297 11.2803 98.7633 11.4069 98.4434 11.6602C98.13 11.9068 97.88 12.27 97.6934 12.75C97.5151 13.2187 97.4246 13.7822 97.4229 14.4404H100.813C101.14 14.4403 101.303 14.29 101.303 13.9902C101.303 13.1036 101.143 12.4297 100.823 11.9697C100.503 11.5098 100.076 11.2803 99.543 11.2803ZM108.426 10.6191C108.603 11.0395 108.743 11.4667 108.849 11.8975V12.7998C108.849 13.1931 108.715 13.4997 108.448 13.7197C108.182 13.9397 107.808 14.0498 107.328 14.0498C106.915 14.0497 106.602 13.953 106.389 13.7598C106.182 13.5598 106.078 13.2901 106.078 12.9502C106.078 12.5302 106.249 12.1197 106.589 11.7197C106.935 11.3199 107.442 10.9904 108.108 10.7305C108.21 10.69 108.317 10.6534 108.426 10.6191Z" fill="#005F2E"/>
<path d="M91.8896 5.12988C92.0962 5.12988 92.2496 5.18662 92.3496 5.2998C92.4563 5.41314 92.5098 5.56333 92.5098 5.75V18.4297C92.5098 18.6362 92.5397 18.7865 92.5996 18.8799C92.6596 18.9732 92.7501 19.0401 92.8701 19.0801L93.25 19.1797C93.3764 19.2196 93.4662 19.2765 93.5195 19.3496C93.5795 19.4162 93.6093 19.4998 93.6094 19.5996C93.6094 19.7196 93.5662 19.8163 93.4795 19.8896C93.3929 19.9629 93.2599 20 93.0801 20H90.9795C90.6463 19.9999 90.3662 19.8929 90.1396 19.6797C89.9132 19.4598 89.7999 19.1734 89.7998 18.8203V18.8096C89.516 19.101 89.2166 19.3558 88.8994 19.5703C88.2195 20.0234 87.4661 20.25 86.6396 20.25C85.8533 20.25 85.1501 20.0502 84.5303 19.6504C83.9171 19.2438 83.4303 18.6869 83.0703 17.9805C82.717 17.2738 82.54 16.46 82.54 15.54C82.54 14.4734 82.7499 13.5495 83.1699 12.7695C83.5965 11.9898 84.1698 11.3866 84.8896 10.96C85.6163 10.5333 86.427 10.3203 87.3203 10.3203C88.1135 10.3204 88.8103 10.5035 89.4102 10.8701C89.517 10.9347 89.6195 11.0059 89.7197 11.0811V7.41016C89.7197 7.25016 89.693 7.1329 89.6396 7.05957C89.5863 6.98645 89.5028 6.93989 89.3896 6.91992L88.8594 6.87988C88.7463 6.85322 88.6626 6.81303 88.6094 6.75977C88.5563 6.69988 88.5303 6.62329 88.5303 6.53027C88.5303 6.42361 88.5601 6.3362 88.6201 6.26953C88.6868 6.20304 88.8067 6.1368 88.9795 6.07031L90.8799 5.38965C91.1197 5.29639 91.3165 5.23043 91.4697 5.19043C91.623 5.15045 91.763 5.1299 91.8896 5.12988ZM97.2734 19.6602C96.5335 19.2602 95.9501 18.7034 95.5234 17.9902C95.1035 17.277 94.8936 16.4403 94.8936 15.4805C94.8936 14.4738 95.0932 13.5829 95.4932 12.8096C95.8997 12.0299 96.4764 11.4204 97.2227 10.9805C97.3161 10.9259 97.412 10.874 97.5098 10.8262V13.4248C97.4536 13.7337 97.4238 14.0722 97.4229 14.4404H97.5098V15.1904H97.459C97.4722 15.319 97.4891 15.4437 97.5098 15.5645V16.3369C98.2916 17.3585 98.6093 18.5345 98.6094 19.5996C98.6094 19.7748 98.6001 19.9507 98.583 20.126C98.1139 20.0285 97.6771 19.8747 97.2734 19.6602ZM87.8301 11.4199C87.3767 11.4199 86.9694 11.5567 86.6094 11.8301C86.2495 12.0968 85.9664 12.5136 85.7598 13.0801C85.5531 13.6401 85.4502 14.3603 85.4502 15.2402C85.4502 16.0533 85.5501 16.7296 85.75 17.2695C85.95 17.8029 86.2236 18.2031 86.5703 18.4697C86.9235 18.7296 87.3231 18.8603 87.7695 18.8604C88.2495 18.8604 88.6961 18.7163 89.1094 18.4297C89.3213 18.2817 89.5248 18.0955 89.7197 17.8711V12.3193C89.5394 12.1241 89.3491 11.961 89.1494 11.8301C88.7429 11.5569 88.3032 11.42 87.8301 11.4199Z" fill="#005F2E"/>
<path d="M63.8887 16.6602C63.9953 16.6602 64.0694 16.7065 64.1094 16.7998C64.156 16.8931 64.1787 17.0033 64.1787 17.1299C64.1387 17.6965 63.936 18.2171 63.5693 18.6904C63.2094 19.1637 62.7226 19.5403 62.1094 19.8203C61.6504 20.0298 61.1387 20.1602 60.5752 20.2129C60.552 20.0087 60.5391 19.8037 60.5391 19.5996C60.5391 19.1858 60.588 18.7552 60.6924 18.3232C60.7637 18.3271 60.8361 18.3301 60.9092 18.3301C61.4755 18.33 61.972 18.2136 62.3984 17.9805C62.825 17.7472 63.1585 17.4167 63.3984 16.9902C63.5117 16.8637 63.6023 16.7772 63.6689 16.7305C63.7422 16.6839 63.8154 16.6602 63.8887 16.6602ZM66.2998 19.0801L66.3145 19.126L66.3115 19.1299L66.2998 19.0801ZM61.6494 10.4893C61.8719 10.5458 62.0824 10.6152 62.2793 10.7002C62.8658 10.9468 63.3187 11.2803 63.6387 11.7002C63.9586 12.1134 64.119 12.5664 64.1191 13.0596C64.1191 13.4395 63.9853 13.7596 63.7188 14.0195C63.4588 14.2729 63.1089 14.4004 62.6689 14.4004C62.2423 14.4004 61.9151 14.2831 61.6885 14.0498C61.6745 14.0346 61.6625 14.0178 61.6494 14.002V12.6133L61.5186 12.4766L61.6494 12.3584V10.4893ZM75.9053 18.5498C75.9165 18.6883 75.9443 18.7952 75.9893 18.8701L76.0449 18.9395C76.1061 19.0032 76.1843 19.0501 76.2793 19.0801L76.6396 19.1797C76.7595 19.2263 76.8461 19.2831 76.8994 19.3496C76.9593 19.4162 76.9892 19.4998 76.9893 19.5996C76.9893 19.7196 76.946 19.8163 76.8594 19.8896C76.7993 19.9447 76.7112 19.9794 76.5947 19.9932L76.4697 20H72.5898C72.23 20 72.0499 19.8568 72.0498 19.5703C72.0498 19.397 72.1496 19.2664 72.3496 19.1797L72.7393 19.0801C72.8659 19.0401 72.9564 18.9701 73.0098 18.8701C73.0547 18.7952 73.0825 18.6883 73.0938 18.5498L73.0996 18.4004V13.7305C73.0996 13.1439 72.9565 12.7066 72.6699 12.4199C72.3899 12.1266 72.0093 11.9805 71.5293 11.9805C71.2294 11.9805 70.9123 12.0536 70.5791 12.2002C70.2459 12.3402 69.903 12.5605 69.5498 12.8604L69.4492 12.9453V18.4297C69.4492 18.6362 69.476 18.7865 69.5293 18.8799C69.5893 18.9732 69.6798 19.0401 69.7998 19.0801L70.1699 19.1797C70.3764 19.2664 70.4795 19.397 70.4795 19.5703C70.4794 19.8568 70.2993 20 69.9395 20H66.0693C65.9345 20 65.8256 19.9797 65.7432 19.9385L65.6699 19.8896C65.5833 19.8163 65.5391 19.7196 65.5391 19.5996C65.5391 19.4998 65.57 19.4162 65.6299 19.3496C65.6899 19.2831 65.7796 19.2263 65.8994 19.1797L66.2998 19.0801C66.3313 19.0696 66.3599 19.0562 66.3867 19.042L66.3145 19.126L66.2998 19.0801L66.3115 19.1299L66.3867 19.042C66.4623 19.0022 66.5203 18.9487 66.5596 18.8799C66.6195 18.7865 66.6494 18.6363 66.6494 18.4297V7.41016C66.6494 7.25016 66.6227 7.1329 66.5693 7.05957C66.5226 6.98646 66.4422 6.93989 66.3291 6.91992L65.7998 6.87988C65.6798 6.85322 65.5924 6.8131 65.5391 6.75977C65.4926 6.69988 65.4698 6.62329 65.4697 6.53027C65.4697 6.42361 65.4996 6.3362 65.5596 6.26953C65.6263 6.20295 65.7468 6.13689 65.9199 6.07031L67.8096 5.38965C68.056 5.29639 68.2528 5.23043 68.3994 5.19043C68.5526 5.15047 68.6959 5.12993 68.8291 5.12988C69.0356 5.12988 69.1891 5.1867 69.2891 5.2998C69.3957 5.41314 69.4492 5.56333 69.4492 5.75V12.0801C70.1404 11.4822 70.7536 11.0521 71.2891 10.79C71.9157 10.4767 72.5062 10.3203 73.0596 10.3203C73.9127 10.3203 74.5992 10.5932 75.1191 11.1396C75.6391 11.6796 75.8994 12.4101 75.8994 13.3301V18.4004L75.9053 18.5498Z" fill="#005F2E"/>
<path d="M50.0791 15.4902C50.0791 13.8599 50.4173 12.2374 51.1807 10.7227C51.3931 10.8228 51.5817 10.9416 51.7461 11.0801C52.3461 11.5734 52.6465 12.2401 52.6465 13.0801V18.2803C52.6465 18.4734 52.6826 18.6167 52.7559 18.71C52.8358 18.8033 52.946 18.8496 53.0859 18.8496C53.2326 18.8496 53.3427 18.8166 53.416 18.75C53.4892 18.6768 53.5491 18.6035 53.5957 18.5303C53.6357 18.4837 53.6759 18.4466 53.7158 18.4199C53.7558 18.3866 53.8031 18.3701 53.8564 18.3701C53.9363 18.3702 53.9931 18.4 54.0264 18.46C54.0663 18.5199 54.0859 18.5971 54.0859 18.6904C54.0858 18.9103 54.0056 19.14 53.8457 19.3799C53.6924 19.6198 53.4629 19.8236 53.1562 19.9902C52.8496 20.1569 52.4659 20.2402 52.0059 20.2402C51.6963 20.2402 51.42 20.2015 51.1758 20.1289C50.3998 18.645 50.0791 17.0539 50.0791 15.4902ZM60.1787 10.3203C60.992 10.3203 61.6926 10.4469 62.2793 10.7002L62.4922 10.7969C62.9765 11.0317 63.3586 11.3326 63.6387 11.7002C63.9586 12.1134 64.119 12.5664 64.1191 13.0596C64.1191 13.4395 63.9853 13.7596 63.7188 14.0195C63.4588 14.2729 63.1089 14.4004 62.6689 14.4004C62.2423 14.4004 61.9151 14.2831 61.6885 14.0498C61.4687 13.8099 61.3594 13.4999 61.3594 13.1201V12.79C61.3594 12.3875 61.2515 12.0565 61.0371 11.7969L60.9385 11.6904C60.6652 11.4172 60.2925 11.2804 59.8193 11.2803C59.3993 11.2803 59.0218 11.4068 58.6885 11.6602C58.362 11.9135 58.1024 12.2769 57.9092 12.75C57.7158 13.2233 57.6191 13.7902 57.6191 14.4502C57.6192 15.2901 57.7591 16.0001 58.0391 16.5801C58.3257 17.1533 58.7157 17.5897 59.209 17.8896C59.709 18.183 60.2758 18.3301 60.9092 18.3301C61.4755 18.33 61.972 18.2136 62.3984 17.9805C62.825 17.7472 63.1585 17.4167 63.3984 16.9902C63.5117 16.8637 63.6023 16.7772 63.6689 16.7305C63.7422 16.6839 63.8154 16.6602 63.8887 16.6602C63.9953 16.6602 64.0694 16.7065 64.1094 16.7998C64.156 16.8931 64.1787 17.0033 64.1787 17.1299C64.1387 17.6965 63.936 18.2171 63.5693 18.6904C63.2094 19.1637 62.7226 19.5403 62.1094 19.8203L61.875 19.918C61.3179 20.1325 60.6894 20.2402 59.9893 20.2402C59.0361 20.2402 58.1891 20.0467 57.4492 19.6602C56.7092 19.2668 56.129 18.7133 55.709 18C55.289 17.2867 55.0791 16.4501 55.0791 15.4902C55.0791 14.5102 55.289 13.6296 55.709 12.8496C56.129 12.0698 56.7227 11.4533 57.4893 11C58.2558 10.5468 59.1522 10.3203 60.1787 10.3203ZM66.6494 7.61914C66.9839 7.92143 67.3004 8.26021 67.5918 8.63867C68.5468 9.87217 69.119 11.3897 69.1191 13.0596C69.1191 13.7473 69.0094 14.4223 68.7979 15.0635C69.0838 15.8087 69.1787 16.5248 69.1787 17.1299V17.3066L69.166 17.4824C69.103 18.3742 68.8922 19.2183 68.5566 20H66.0693C65.8895 20 65.7566 19.9629 65.6699 19.8896C65.5833 19.8163 65.5391 19.7196 65.5391 19.5996C65.5391 19.4998 65.57 19.4162 65.6299 19.3496C65.6899 19.2831 65.7796 19.2263 65.8994 19.1797L66.2998 19.0801C66.4197 19.0401 66.5063 18.9732 66.5596 18.8799C66.6195 18.7865 66.6494 18.6363 66.6494 18.4297V7.61914Z" fill="#005F2E"/>
<path d="M49.0264 10.3301C50.2462 10.3301 51.1528 10.5801 51.7461 11.0801C52.3461 11.5734 52.6465 12.2401 52.6465 13.0801V18.2803C52.6465 18.4734 52.6826 18.6167 52.7559 18.71C52.8358 18.8033 52.946 18.8496 53.0859 18.8496C53.2326 18.8496 53.3427 18.8166 53.416 18.75C53.4892 18.6768 53.5491 18.6035 53.5957 18.5303C53.6357 18.4837 53.6759 18.4466 53.7158 18.4199C53.7558 18.3866 53.8031 18.3701 53.8564 18.3701C53.9363 18.3702 53.9931 18.4 54.0264 18.46C54.0663 18.5199 54.0859 18.5971 54.0859 18.6904C54.0858 18.9103 54.0056 19.14 53.8457 19.3799C53.6924 19.6198 53.4629 19.8236 53.1562 19.9902C52.8496 20.1569 52.4659 20.2402 52.0059 20.2402C51.4126 20.2402 50.9392 20.1065 50.5859 19.8398C50.3137 19.6343 50.1474 19.3692 50.085 19.0449C49.7737 19.3616 49.4016 19.6214 48.9658 19.8203C48.3526 20.1002 47.7022 20.2402 47.0156 20.2402C46.1492 20.2402 45.443 20.0262 44.8965 19.5996C44.3565 19.1663 44.086 18.6034 44.0859 17.9102C44.0859 17.0835 44.4563 16.4168 45.1963 15.9102C45.9362 15.3969 46.9726 15.1397 48.3057 15.1396C48.739 15.1396 49.1299 15.1767 49.4766 15.25C49.6176 15.2798 49.7504 15.315 49.876 15.3525V12.5098C49.8759 12.0432 49.7556 11.683 49.5156 11.4297C49.2757 11.17 48.9421 11.04 48.5156 11.04C48.1227 11.0401 47.8197 11.1267 47.6064 11.2998C47.3931 11.4665 47.2861 11.6702 47.2861 11.9102V12.7998C47.2861 13.1931 47.1524 13.4997 46.8857 13.7197C46.6191 13.9397 46.2456 14.0498 45.7656 14.0498C45.3525 14.0497 45.0394 13.953 44.8262 13.7598C44.6196 13.5598 44.5157 13.2901 44.5156 12.9502C44.5156 12.5302 44.6864 12.1197 45.0264 11.7197C45.373 11.3199 45.8796 10.9904 46.5459 10.7305C47.2192 10.4638 48.0464 10.3301 49.0264 10.3301ZM57.4492 19.6602C56.7092 19.2668 56.129 18.7133 55.709 18C55.289 17.2867 55.0791 16.4501 55.0791 15.4902C55.0791 14.5102 55.289 13.6296 55.709 12.8496C56.1105 12.1041 56.6714 11.5096 57.3896 11.0625C57.5613 11.7183 57.6465 12.3963 57.6465 13.0801V13.8779C57.6289 14.0602 57.6191 14.251 57.6191 14.4502C57.6192 15.2901 57.7591 16.0001 58.0391 16.5801C58.2847 17.0713 58.6066 17.4614 59.0039 17.752C59.0417 17.9724 59.0661 18.1821 59.0771 18.3779L59.0859 18.6904L59.0801 18.9629C59.0609 19.3836 58.9959 19.7785 58.9033 20.1465C58.38 20.0539 57.8951 19.8931 57.4492 19.6602ZM40.0605 10.9502C40.8405 11.3702 41.4475 11.9566 41.8809 12.71C42.3141 13.4565 42.5302 14.3231 42.5303 15.3096C42.5303 16.2496 42.307 17.0932 41.8604 17.8398C41.4138 18.5797 40.7941 19.1663 40.001 19.5996C39.7953 19.7129 39.5804 19.8109 39.3574 19.8945C39.2419 19.4857 39.1638 19.0633 39.1221 18.6309C39.1309 18.6201 39.1417 18.6106 39.1504 18.5996C39.4303 18.253 39.6073 17.7733 39.6807 17.1602C39.7531 16.6048 39.7259 15.9457 39.6016 15.1826C39.6574 15.0429 39.7171 14.9054 39.7812 14.7705C39.6246 14.2462 39.5426 13.7219 39.5215 13.2207L39.5156 12.9502L39.5254 12.6016C39.5583 11.9735 39.6799 11.389 39.8613 10.8506C39.9283 10.883 39.9954 10.9148 40.0605 10.9502ZM48.6963 15.8301C48.1497 15.8301 47.7196 15.9732 47.4062 16.2598C47.0996 16.5398 46.9463 16.9338 46.9463 17.4404C46.9464 17.9467 47.0762 18.333 47.3359 18.5996C47.6026 18.8663 47.9462 19 48.3662 19C48.7194 19 49.0592 18.9197 49.3857 18.7598C49.5647 18.6703 49.7277 18.5616 49.876 18.4355V16.0498C49.7393 15.9986 49.6025 15.9551 49.4658 15.9199C49.2326 15.86 48.9761 15.8301 48.6963 15.8301Z" fill="#005F2E"/>
<path d="M37.3604 10.3203C38.387 10.3203 39.2872 10.5302 40.0605 10.9502C40.8405 11.3702 41.4475 11.9566 41.8809 12.71C42.3141 13.4565 42.5302 14.3231 42.5303 15.3096C42.5303 16.2496 42.307 17.0932 41.8604 17.8398C41.4138 18.5797 40.7941 19.1663 40.001 19.5996C39.2143 20.0329 38.3007 20.25 37.2607 20.25C36.2408 20.25 35.3405 20.037 34.5605 19.6104C33.7872 19.1837 33.1802 18.5963 32.7402 17.8496C32.3071 17.103 32.0908 16.2427 32.0908 15.2695C32.0909 14.3165 32.3143 13.4703 32.7607 12.7305C33.2074 11.9838 33.8237 11.3964 34.6104 10.9697C35.4036 10.5364 36.3205 10.3204 37.3604 10.3203ZM45.1963 15.9102C45.7855 15.5014 46.5629 15.2581 47.5283 15.1748C47.5288 15.2197 47.5303 15.2647 47.5303 15.3096C47.5303 15.6034 47.5164 15.8967 47.4922 16.1885C47.4629 16.2114 47.4338 16.2346 47.4062 16.2598C47.0996 16.5398 46.9463 16.9338 46.9463 17.4404C46.9463 17.7606 46.9987 18.0325 47.1025 18.2568C46.903 18.9158 46.6303 19.5589 46.2812 20.1797C45.7412 20.0902 45.2795 19.8985 44.8965 19.5996C44.3565 19.1663 44.086 18.6034 44.0859 17.9102C44.0859 17.0835 44.4563 16.4168 45.1963 15.9102ZM30.5098 16.6602C30.6164 16.6602 30.6905 16.7065 30.7305 16.7998C30.7771 16.8931 30.7998 17.0033 30.7998 17.1299C30.7598 17.6965 30.5571 18.2171 30.1904 18.6904C29.8305 19.1637 29.3436 19.5403 28.7305 19.8203C28.5686 19.8942 28.3995 19.9573 28.2246 20.0117C27.9364 19.4641 27.7082 18.9014 27.5342 18.3291C28.0989 18.3285 28.594 18.213 29.0195 17.9805C29.4461 17.7472 29.7795 17.4167 30.0195 16.9902C30.1328 16.8637 30.2234 16.7772 30.29 16.7305C30.3633 16.6839 30.4365 16.6602 30.5098 16.6602ZM37.8604 11.5996C37.4605 11.3465 37.0271 11.2599 36.5605 11.3398C36.1074 11.4065 35.7409 11.6166 35.4609 11.9697C35.1876 12.3164 35.0138 12.7968 34.9404 13.4102C34.8738 14.0234 34.917 14.7634 35.0703 15.6299C35.217 16.4898 35.4372 17.1998 35.7305 17.7598C36.0238 18.3197 36.3674 18.7231 36.7607 18.9697C37.1607 19.2164 37.5939 19.3038 38.0605 19.2305C38.5139 19.1571 38.8771 18.9463 39.1504 18.5996C39.4303 18.253 39.6073 17.7733 39.6807 17.1602C39.7607 16.5469 39.7205 15.8069 39.5605 14.9404C39.4072 14.0738 39.184 13.3629 38.8906 12.8096C38.604 12.2497 38.2603 11.8462 37.8604 11.5996ZM28.2812 10.4922C28.4997 10.5482 28.7066 10.6165 28.9004 10.7002C29.4869 10.9468 29.9398 11.2803 30.2598 11.7002C30.5797 12.1134 30.7401 12.5664 30.7402 13.0596C30.7402 13.4395 30.6064 13.7596 30.3398 14.0195C30.0799 14.2729 29.73 14.4004 29.29 14.4004C28.8634 14.4004 28.5362 14.2831 28.3096 14.0498C28.0898 13.8099 27.9805 13.4999 27.9805 13.1201V12.79C27.9805 12.402 27.879 12.0814 27.6797 11.8262C27.8436 11.3728 28.043 10.927 28.2812 10.4922ZM46.499 10.749C46.855 11.4665 47.1099 12.2078 47.2773 12.96C47.2452 13.2774 47.1151 13.5305 46.8857 13.7197C46.6191 13.9397 46.2456 14.0498 45.7656 14.0498C45.3525 14.0497 45.0394 13.953 44.8262 13.7598C44.6196 13.5598 44.5157 13.2901 44.5156 12.9502C44.5156 12.5302 44.6864 12.1197 45.0264 11.7197C45.3648 11.3294 45.8558 11.006 46.499 10.749Z" fill="#005F2E"/>
<path d="M26.7998 10.3203C27.6131 10.3203 28.3137 10.4469 28.9004 10.7002L29.1133 10.7969C29.5976 11.0317 29.9797 11.3326 30.2598 11.7002C30.5797 12.1134 30.7401 12.5664 30.7402 13.0596C30.7402 13.4395 30.6064 13.7596 30.3398 14.0195C30.0799 14.2729 29.73 14.4004 29.29 14.4004C28.8634 14.4004 28.5362 14.2831 28.3096 14.0498C28.0898 13.8099 27.9805 13.4999 27.9805 13.1201V12.79C27.9805 12.3875 27.8726 12.0565 27.6582 11.7969L27.5596 11.6904C27.2863 11.4172 26.9136 11.2804 26.4404 11.2803C26.0204 11.2803 25.6429 11.4068 25.3096 11.6602C24.9831 11.9135 24.7235 12.2769 24.5303 12.75C24.3369 13.2233 24.2402 13.7902 24.2402 14.4502C24.2403 15.2901 24.3802 16.0001 24.6602 16.5801C24.9468 17.1533 25.3368 17.5897 25.8301 17.8896C26.3301 18.183 26.8969 18.3301 27.5303 18.3301C28.0966 18.33 28.5931 18.2136 29.0195 17.9805C29.4461 17.7472 29.7795 17.4167 30.0195 16.9902C30.1328 16.8637 30.2234 16.7772 30.29 16.7305C30.3633 16.6839 30.4365 16.6602 30.5098 16.6602C30.6164 16.6602 30.6905 16.7065 30.7305 16.7998C30.7771 16.8931 30.7998 17.0033 30.7998 17.1299C30.7598 17.6965 30.5571 18.2171 30.1904 18.6904C29.8305 19.1637 29.3436 19.5403 28.7305 19.8203L28.4961 19.918C27.939 20.1325 27.3104 20.2402 26.6104 20.2402C25.6572 20.2402 24.8102 20.0467 24.0703 19.6602C23.3303 19.2668 22.7501 18.7133 22.3301 18C21.9101 17.2867 21.7002 16.4501 21.7002 15.4902C21.7002 14.5102 21.9101 13.6296 22.3301 12.8496C22.7501 12.0698 23.3438 11.4533 24.1104 11C24.8769 10.5468 25.7733 10.3203 26.7998 10.3203ZM35.3223 10.6533C35.4536 11.0192 35.5556 11.3984 35.626 11.7891C35.5682 11.8446 35.5128 11.9044 35.4609 11.9697C35.1876 12.3164 35.0138 12.7968 34.9404 13.4102C34.8738 14.0234 34.917 14.7634 35.0703 15.6299C35.217 16.4898 35.4372 17.1998 35.7305 17.7598C35.7389 17.7759 35.7483 17.7917 35.7568 17.8076C35.674 18.545 35.4887 19.2471 35.2158 19.9062C34.989 19.8224 34.7701 19.725 34.5605 19.6104C33.7872 19.1837 33.1802 18.5963 32.7402 17.8496C32.3071 17.103 32.0908 16.2427 32.0908 15.2695C32.0909 14.3165 32.3143 13.4703 32.7607 12.7305C33.2074 11.9838 33.8237 11.3964 34.6104 10.9697C34.8372 10.8458 35.0752 10.7418 35.3223 10.6533Z" fill="#005F2E"/>
<path d="M11.4844 14.5C11.4844 14.6947 11.4266 14.8851 11.3185 15.0469C11.2103 15.2088 11.0566 15.335 10.8767 15.4095C10.6968 15.484 10.4989 15.5035 10.308 15.4655C10.117 15.4275 9.94161 15.3338 9.80394 15.1961C9.66627 15.0584 9.57252 14.883 9.53454 14.6921C9.49656 14.5011 9.51605 14.3032 9.59056 14.1233C9.66506 13.9435 9.79123 13.7897 9.95311 13.6816C10.115 13.5734 10.3053 13.5157 10.5 13.5157C10.7611 13.5157 11.0115 13.6194 11.1961 13.804C11.3807 13.9886 11.4844 14.239 11.4844 14.5ZM6.89062 13.5157C6.69593 13.5157 6.50562 13.5734 6.34374 13.6816C6.18186 13.7897 6.05569 13.9435 5.98118 14.1233C5.90668 14.3032 5.88718 14.5011 5.92516 14.6921C5.96315 14.883 6.0569 15.0584 6.19457 15.1961C6.33223 15.3338 6.50763 15.4275 6.69858 15.4655C6.88953 15.5035 7.08746 15.484 7.26733 15.4095C7.4472 15.335 7.60094 15.2088 7.7091 15.0469C7.81727 14.8851 7.875 14.6947 7.875 14.5C7.875 14.239 7.77129 13.9886 7.58668 13.804C7.40208 13.6194 7.1517 13.5157 6.89062 13.5157ZM14.1094 13.5157C13.9147 13.5157 13.7244 13.5734 13.5625 13.6816C13.4006 13.7897 13.2744 13.9435 13.1999 14.1233C13.1254 14.3032 13.1059 14.5011 13.1439 14.6921C13.1819 14.883 13.2757 15.0584 13.4133 15.1961C13.551 15.3338 13.7264 15.4275 13.9173 15.4655C14.1083 15.5035 14.3062 15.484 14.4861 15.4095C14.6659 15.335 14.8197 15.2088 14.9279 15.0469C15.036 14.8851 15.0938 14.6947 15.0938 14.5C15.0938 14.239 14.99 13.9886 14.8054 13.804C14.6208 13.6194 14.3704 13.5157 14.1094 13.5157ZM19.0312 14.5C19.0316 15.9729 18.6506 17.4208 17.9253 18.7028C17.2 19.9847 16.1552 21.0571 14.8925 21.8154C13.6299 22.5738 12.1924 22.9923 10.72 23.0303C9.24755 23.0683 7.79039 22.7244 6.49031 22.0322L3.69715 22.9632C3.46589 23.0403 3.21772 23.0515 2.98046 22.9955C2.7432 22.9395 2.52622 22.8186 2.35385 22.6462C2.18147 22.4738 2.06051 22.2568 2.00451 22.0196C1.94852 21.7823 1.95971 21.5341 2.03684 21.3029L2.96789 18.5097C2.35934 17.3656 2.01944 16.0978 1.974 14.8027C1.92855 13.5076 2.17875 12.2191 2.70561 11.0352C3.23247 9.85116 4.02213 8.80276 5.01467 7.96953C6.0072 7.13629 7.17651 6.54012 8.43385 6.22627C9.69119 5.91241 11.0035 5.88913 12.2712 6.15818C13.5389 6.42722 14.7286 6.98153 15.7501 7.77903C16.7715 8.57653 17.5979 9.59626 18.1664 10.7608C18.735 11.9254 19.0307 13.2041 19.0312 14.5ZM17.7188 14.5C17.7184 13.3927 17.4634 12.3003 16.9733 11.3073C16.4833 10.3144 15.7713 9.44744 14.8926 8.77363C14.0139 8.09982 12.992 7.6372 11.9058 7.42155C10.8197 7.20591 9.69854 7.24301 8.62906 7.53001C7.55958 7.817 6.57045 8.34619 5.73821 9.07662C4.90597 9.80706 4.25292 10.7192 3.8296 11.7424C3.40627 12.7656 3.22401 13.8725 3.29691 14.9774C3.36982 16.0823 3.69594 17.1556 4.25004 18.1143C4.29654 18.1948 4.32542 18.2843 4.33475 18.3768C4.34409 18.4692 4.33367 18.5627 4.30418 18.6508L3.28125 21.7188L6.34922 20.6959C6.41604 20.6731 6.48616 20.6614 6.55676 20.6614C6.67201 20.6616 6.78519 20.6922 6.88488 20.75C7.9823 21.3849 9.22758 21.7196 10.4954 21.7204C11.7633 21.7212 13.009 21.3881 14.1072 20.7546C15.2054 20.121 16.1174 19.2094 16.7514 18.1114C17.3854 17.0135 17.719 15.7679 17.7188 14.5Z" fill="#005F2E"/>
</svg>
