<svg width="139" height="26" viewBox="0 0 139 26" fill="none" xmlns="http://www.w3.org/2000/svg">
<path d="M116.324 7.5293C116.9 7.64278 117.362 7.85375 117.71 8.16016C118.263 8.64682 118.54 9.30012 118.54 10.1201V15.5195C118.54 15.7395 118.58 15.9 118.66 16C118.747 16.1 118.86 16.1504 119 16.1504C119.167 16.1504 119.287 16.1134 119.36 16.04C119.434 15.9601 119.493 15.8829 119.54 15.8096C119.573 15.7697 119.607 15.7366 119.641 15.71C119.681 15.6768 119.724 15.6602 119.771 15.6602C119.837 15.6602 119.887 15.6839 119.92 15.7305C119.953 15.7771 119.97 15.8433 119.97 15.9297C119.97 16.1163 119.904 16.3099 119.771 16.5098C119.644 16.7097 119.453 16.8796 119.2 17.0195C118.954 17.1595 118.64 17.2305 118.26 17.2305C117.74 17.2304 117.33 17.1068 117.03 16.8604C116.78 16.6486 116.635 16.3618 116.594 16.001C116.507 16.0887 116.416 16.1729 116.32 16.252C116.342 15.9871 116.382 15.7218 116.444 15.459C116.45 15.4541 116.455 15.4492 116.46 15.4443V15.3975C116.643 14.6594 116.99 13.9434 117.512 13.3135V12.1455C116.993 11.5592 116.66 10.9204 116.46 10.2969V9.80957C116.46 9.36155 116.373 8.99583 116.202 8.71094V8.66016L116.208 8.41309C116.222 8.11845 116.26 7.82258 116.324 7.5293ZM132.145 16.751C132.131 16.8185 132.097 16.8749 132.042 16.9199L131.984 16.9551C131.919 16.9851 131.832 17 131.722 17H128.132C127.832 17 127.682 16.8899 127.682 16.6699C127.682 16.5167 127.782 16.4065 127.981 16.3398L128.462 16.2402C128.602 16.2003 128.705 16.1333 128.771 16.04C128.821 15.9651 128.853 15.8658 128.865 15.7422L128.872 15.6104V10.6797C128.872 10.0134 128.705 9.51705 128.372 9.19043C128.045 8.8571 127.608 8.69043 127.062 8.69043C126.728 8.69049 126.368 8.77382 125.981 8.94043C125.595 9.10711 125.185 9.37685 124.752 9.75L124.602 9.87891V15.6504C124.602 15.8302 124.636 15.9632 124.702 16.0498C124.769 16.1365 124.866 16.2002 124.992 16.2402L125.452 16.3398C125.652 16.4065 125.752 16.5167 125.752 16.6699C125.752 16.8899 125.602 17 125.302 17H121.731C121.622 17 121.533 16.985 121.464 16.9551L121.402 16.9199C121.336 16.8599 121.302 16.7797 121.302 16.6797C121.302 16.6 121.329 16.5337 121.382 16.4805C121.435 16.4205 121.519 16.3732 121.632 16.3398L122.112 16.2402C122.212 16.2102 122.293 16.1666 122.355 16.1104L122.412 16.0498C122.479 15.9632 122.512 15.8333 122.512 15.6602V9.40039C122.512 9.25372 122.485 9.14984 122.432 9.08984C122.385 9.02331 122.305 8.98305 122.191 8.96973L121.512 8.94043C121.398 8.92043 121.318 8.8896 121.271 8.84961C121.225 8.80301 121.202 8.73986 121.202 8.66016C121.202 8.58016 121.229 8.51329 121.282 8.45996C121.336 8.40004 121.436 8.34642 121.582 8.2998L123.271 7.70996C123.471 7.63665 123.635 7.58314 123.762 7.5498C123.888 7.51647 124.006 7.5 124.112 7.5C124.272 7.50008 124.392 7.5466 124.472 7.63965C124.558 7.72627 124.602 7.84988 124.602 8.00977V9.16504C125.298 8.55508 125.915 8.12008 126.452 7.86035C127.052 7.57371 127.625 7.42969 128.172 7.42969C129.005 7.42969 129.678 7.69331 130.191 8.21973C130.705 8.73973 130.962 9.45369 130.962 10.3604V15.6104L130.969 15.7461C130.982 15.8737 131.017 15.9748 131.072 16.0498C131.152 16.143 131.258 16.2069 131.392 16.2402L131.722 16.3164L131.822 16.3398C131.935 16.3732 132.019 16.4205 132.072 16.4805C132.125 16.5337 132.152 16.6 132.152 16.6797L132.145 16.751Z" fill="#005F2E"/>
<path d="M115.19 7.42969C116.317 7.42973 117.157 7.67355 117.71 8.16016C118.263 8.64682 118.54 9.30012 118.54 10.1201V15.5195C118.54 15.7395 118.58 15.9 118.66 16C118.747 16.1 118.86 16.1504 119 16.1504C119.167 16.1504 119.287 16.1134 119.36 16.04C119.434 15.9601 119.493 15.8829 119.54 15.8096C119.573 15.7697 119.607 15.7366 119.641 15.71C119.681 15.6768 119.724 15.6602 119.771 15.6602C119.837 15.6602 119.887 15.6839 119.92 15.7305C119.953 15.7771 119.97 15.8433 119.97 15.9297C119.97 16.1163 119.904 16.3099 119.771 16.5098C119.644 16.7097 119.453 16.8796 119.2 17.0195C118.954 17.1595 118.64 17.2305 118.26 17.2305C117.74 17.2304 117.33 17.1068 117.03 16.8604C116.78 16.6486 116.635 16.3618 116.594 16.001C116.275 16.3216 115.901 16.5858 115.47 16.79C114.85 17.0833 114.196 17.2305 113.51 17.2305C112.67 17.2304 111.983 17.0235 111.45 16.6104C110.924 16.1904 110.66 15.6297 110.66 14.9297C110.66 14.1432 111.01 13.4999 111.71 13C112.41 12.4933 113.387 12.2402 114.641 12.2402C115.094 12.2403 115.507 12.2835 115.88 12.3701C116.087 12.4137 116.28 12.4659 116.46 12.5254V9.80957C116.46 9.22998 116.317 8.78705 116.03 8.48047C115.744 8.1738 115.333 8.01953 114.8 8.01953C114.293 8.01958 113.913 8.1266 113.66 8.33984C113.407 8.54647 113.28 8.79658 113.28 9.08984V9.87012C113.28 10.1901 113.176 10.437 112.97 10.6104C112.763 10.7834 112.473 10.8701 112.101 10.8701C111.781 10.8701 111.534 10.7867 111.36 10.6201C111.194 10.4535 111.11 10.2269 111.11 9.94043C111.11 9.53377 111.27 9.13976 111.59 8.75977C111.91 8.3731 112.374 8.05624 112.98 7.80957C113.587 7.55635 114.324 7.42969 115.19 7.42969ZM108.638 13.8496C108.724 13.8496 108.788 13.8866 108.828 13.96C108.868 14.0333 108.885 14.1238 108.878 14.2305C108.838 14.7769 108.641 15.2804 108.288 15.7402C107.935 16.1935 107.461 16.5568 106.868 16.8301C106.593 16.9538 106.3 17.047 105.99 17.1133C105.855 16.679 105.76 16.2316 105.708 15.7744C106.285 15.7469 106.792 15.5994 107.229 15.3301C107.715 15.0301 108.055 14.6298 108.248 14.1299C108.328 14.0232 108.395 13.9502 108.448 13.9102C108.508 13.8702 108.571 13.8497 108.638 13.8496ZM123.183 7.74023C123.425 8.5143 123.54 9.31804 123.54 10.1201V12.2764C123.618 12.3598 123.695 12.4472 123.77 12.5381L123.989 12.8242C124.261 13.2044 124.458 13.5867 124.602 13.9521V15.6504C124.602 15.8302 124.636 15.9632 124.702 16.0498C124.763 16.1292 124.85 16.1883 124.961 16.2285C124.947 16.4966 124.916 16.7538 124.87 17H121.731C121.585 16.9999 121.476 16.9731 121.402 16.9199C121.336 16.8599 121.302 16.7797 121.302 16.6797C121.302 16.6 121.329 16.5337 121.382 16.4805C121.435 16.4205 121.519 16.3732 121.632 16.3398L122.112 16.2402C122.245 16.2002 122.345 16.1364 122.412 16.0498C122.479 15.9632 122.512 15.8333 122.512 15.6602V9.40039C122.512 9.25372 122.485 9.14984 122.432 9.08984C122.385 9.02331 122.305 8.98305 122.191 8.96973L121.512 8.94043C121.398 8.92043 121.318 8.8896 121.271 8.84961C121.225 8.80301 121.202 8.73986 121.202 8.66016C121.202 8.58016 121.229 8.51329 121.282 8.45996C121.336 8.40004 121.436 8.34642 121.582 8.2998L123.183 7.74023ZM114.93 12.8096C114.27 12.8096 113.753 12.9701 113.38 13.29C113.013 13.6033 112.83 14.0367 112.83 14.5898C112.83 15.1232 112.98 15.5367 113.28 15.8301C113.587 16.1167 113.977 16.2598 114.45 16.2598C114.89 16.2598 115.313 16.1598 115.72 15.96C115.993 15.8234 116.239 15.6508 116.46 15.4443V13.1084C116.266 13.0399 116.07 12.9796 115.87 12.9297C115.583 12.8497 115.27 12.8096 114.93 12.8096ZM106.509 7.68848C106.683 7.7511 106.849 7.82471 107.008 7.91016C107.608 8.22349 108.072 8.6638 108.398 9.23047C108.725 9.79028 108.888 10.44 108.888 11.1797C108.888 11.473 108.798 11.7004 108.618 11.8604C108.445 12.0136 108.191 12.0898 107.858 12.0898H106.233C106.281 11.9784 106.329 11.8679 106.382 11.7598C106.352 11.6619 106.324 11.5641 106.3 11.4668C106.592 11.4546 106.738 11.3139 106.738 11.04C106.738 10.1599 106.551 9.47221 106.182 8.97461C106.249 8.52055 106.362 8.09124 106.509 7.68848Z" fill="#005F2E"/>
<path d="M104.898 7.42969C105.712 7.42973 106.415 7.59026 107.008 7.91016C107.608 8.22349 108.072 8.6638 108.398 9.23047C108.725 9.79028 108.888 10.44 108.888 11.1797C108.888 11.473 108.798 11.7004 108.618 11.8604C108.445 12.0136 108.191 12.0898 107.858 12.0898H102.077C102.13 13.2401 102.444 14.1268 103.019 14.75C103.652 15.4365 104.481 15.7802 105.508 15.7803C106.168 15.7803 106.742 15.6301 107.229 15.3301C107.715 15.0301 108.055 14.6298 108.248 14.1299C108.328 14.0232 108.395 13.9502 108.448 13.9102C108.508 13.8702 108.571 13.8497 108.638 13.8496C108.724 13.8496 108.788 13.8866 108.828 13.96C108.868 14.0333 108.885 14.1238 108.878 14.2305C108.838 14.7769 108.641 15.2804 108.288 15.7402C107.935 16.1935 107.461 16.5568 106.868 16.8301C106.275 17.0967 105.601 17.2305 104.848 17.2305C103.915 17.2304 103.091 17.037 102.378 16.6504C101.671 16.2571 101.118 15.7067 100.718 15C100.324 14.2867 100.128 13.4533 100.128 12.5C100.128 11.52 100.321 10.6496 100.708 9.88965C101.095 9.12976 101.645 8.5298 102.358 8.08984C103.072 7.64995 103.919 7.42969 104.898 7.42969ZM113.787 12.2832C113.76 12.4328 113.726 12.5835 113.687 12.7354C113.715 12.8397 113.738 12.9432 113.759 13.0449C113.62 13.1124 113.493 13.1933 113.38 13.29C113.013 13.6033 112.83 14.0367 112.83 14.5898C112.83 15.1232 112.98 15.5367 113.28 15.8301C113.382 15.9247 113.493 16.002 113.612 16.0654C113.503 16.4642 113.363 16.8492 113.194 17.2197C112.497 17.1735 111.915 16.9705 111.45 16.6104C110.924 16.1904 110.66 15.6297 110.66 14.9297C110.66 14.1432 111.01 13.4999 111.71 13C112.242 12.6147 112.935 12.3755 113.787 12.2832ZM97.4668 15.6504C97.4668 15.83 97.4999 15.9663 97.5664 16.0596C97.6331 16.1462 97.7329 16.2069 97.8662 16.2402L98.3262 16.3398C98.4393 16.3731 98.5228 16.4165 98.5762 16.4697C98.6361 16.523 98.6659 16.5932 98.666 16.6797C98.666 16.7796 98.6299 16.8599 98.5566 16.9199C98.4834 16.9732 98.3699 17 98.2168 17H96.3965C96.2942 17 96.1989 16.989 96.1104 16.9688C95.7741 16.2734 95.5345 15.5577 95.376 14.835V10.1084C95.5569 9.26297 95.842 8.42879 96.252 7.62305L96.4053 7.33301C96.4257 7.29595 96.4469 7.25939 96.4678 7.22266V6.46973H96.9424C97.107 6.23355 97.2819 6.0056 97.4668 5.78613V15.6504ZM104.628 8.19043C104.121 8.19047 103.675 8.3366 103.288 8.62988C102.908 8.91655 102.608 9.32702 102.388 9.86035C102.201 10.3224 102.096 10.8589 102.073 11.4697H106.258C106.578 11.4697 106.738 11.3267 106.738 11.04C106.738 10.1402 106.545 9.44041 106.158 8.94043C105.778 8.44043 105.268 8.19043 104.628 8.19043ZM113.217 7.71973C113.324 7.97764 113.416 8.23813 113.496 8.5C113.352 8.6719 113.28 8.86866 113.28 9.08984V9.87012C113.28 10.1901 113.176 10.437 112.97 10.6104C112.763 10.7834 112.473 10.8701 112.101 10.8701C111.781 10.8701 111.534 10.7867 111.36 10.6201C111.194 10.4535 111.11 10.2269 111.11 9.94043C111.11 9.53377 111.27 9.13976 111.59 8.75977C111.91 8.3731 112.374 8.05624 112.98 7.80957C113.057 7.77756 113.136 7.74769 113.217 7.71973Z" fill="#005F2E"/>
<path d="M96.9766 2.25C97.1431 2.25003 97.2667 2.29639 97.3467 2.38965C97.4267 2.47632 97.4668 2.59667 97.4668 2.75V15.6504C97.4668 15.83 97.4999 15.9663 97.5664 16.0596C97.6331 16.1462 97.7329 16.2069 97.8662 16.2402L98.3262 16.3398C98.4393 16.3731 98.5228 16.4165 98.5762 16.4697C98.6361 16.523 98.6659 16.5932 98.666 16.6797C98.666 16.7796 98.6299 16.8599 98.5566 16.9199C98.4834 16.9732 98.3699 17 98.2168 17H96.3965C96.1032 17 95.8665 16.9166 95.6865 16.75C95.5132 16.5767 95.4268 16.3329 95.4268 16.0195V15.7354C95.1038 16.0746 94.7585 16.364 94.3867 16.5996C93.7201 17.0196 92.9927 17.2305 92.2061 17.2305C91.4195 17.2304 90.7197 17.0298 90.1064 16.6299C89.4932 16.2299 89.0096 15.6803 88.6562 14.9805C88.3029 14.2738 88.126 13.46 88.126 12.54C88.126 11.4935 88.3329 10.5869 88.7461 9.82031C89.1594 9.05372 89.7161 8.46313 90.416 8.0498C91.116 7.63647 91.8968 7.42969 92.7568 7.42969C93.5433 7.42976 94.2432 7.6232 94.8564 8.00977C95.0411 8.12292 95.2132 8.25279 95.376 8.39551V4.15039C95.376 4.00393 95.3501 3.89676 95.2969 3.83008C95.2502 3.76345 95.1699 3.72643 95.0566 3.71973L94.376 3.69043C94.2629 3.67043 94.1833 3.63642 94.1367 3.58984C94.0901 3.54321 94.0664 3.48342 94.0664 3.41016C94.0664 3.33016 94.0932 3.26329 94.1465 3.20996C94.2065 3.14999 94.3064 3.09645 94.4463 3.0498L96.1367 2.45996C96.3364 2.38675 96.4994 2.33313 96.626 2.2998C96.7593 2.26647 96.8766 2.25 96.9766 2.25ZM103.647 17.1084C103.192 17.0126 102.768 16.8618 102.378 16.6504C101.671 16.2571 101.118 15.7067 100.718 15C100.324 14.2867 100.128 13.4533 100.128 12.5C100.128 11.52 100.321 10.6496 100.708 9.88965C101.095 9.12976 101.645 8.5298 102.358 8.08984C102.394 8.06803 102.431 8.04905 102.467 8.02832V9.68262C102.44 9.7402 102.413 9.79957 102.388 9.86035C102.201 10.3224 102.096 10.8589 102.073 11.4697H102.467V12.0898H102.077C102.13 13.2401 102.444 14.1268 103.019 14.75C103.149 14.8909 103.288 15.0159 103.435 15.1279C103.591 15.6412 103.666 16.1665 103.666 16.6797C103.666 16.8224 103.659 16.9655 103.647 17.1084ZM93.1064 8.30957C92.5798 8.30957 92.1065 8.4567 91.6865 8.75C91.2665 9.04333 90.9332 9.48674 90.6865 10.0801C90.4465 10.6667 90.3262 11.4066 90.3262 12.2998C90.3262 13.1464 90.4435 13.8564 90.6768 14.4297C90.9101 15.003 91.2301 15.4331 91.6367 15.7197C92.0434 16.0064 92.5033 16.1504 93.0166 16.1504C93.5497 16.1504 94.0563 15.9969 94.5361 15.6904C94.8326 15.4969 95.1126 15.2455 95.376 14.9375V9.42285C95.155 9.16487 94.9125 8.95023 94.6465 8.78027C94.1665 8.46695 93.6531 8.30958 93.1064 8.30957Z" fill="#005F2E"/>
<path d="M69.6514 13.8799C69.7447 13.8799 69.8085 13.9169 69.8418 13.9902C69.8817 14.0635 69.8983 14.1502 69.8916 14.25C69.8449 14.8032 69.6483 15.3065 69.3018 15.7598C68.9552 16.2063 68.495 16.5634 67.9219 16.8301C67.4725 17.0391 66.9734 17.1648 66.4258 17.21C66.408 17.0314 66.3994 16.854 66.3994 16.6797C66.3994 16.3758 66.4262 16.0693 66.4795 15.7646C66.5264 15.7662 66.5735 15.7695 66.6211 15.7695C67.2544 15.7695 67.8017 15.6234 68.2617 15.3301C68.7283 15.0368 69.0617 14.6467 69.2617 14.1602C69.3414 14.0539 69.4077 13.9805 69.4609 13.9404C69.5209 13.9004 69.5847 13.8799 69.6514 13.8799ZM67.6094 7.61719C67.7814 7.66572 67.9459 7.7225 68.1016 7.79004C68.6615 8.02337 69.0885 8.33717 69.3818 8.73047C69.6815 9.1236 69.831 9.55005 69.8311 10.0098C69.8311 10.323 69.7281 10.5865 69.5215 10.7998C69.3148 11.0065 69.0412 11.1104 68.7012 11.1104C68.3681 11.1103 68.1085 11.0165 67.9219 10.8301C67.7419 10.6368 67.6514 10.3835 67.6514 10.0703V9.75C67.6514 9.41007 67.564 9.11845 67.3906 8.87402L67.6094 8.68652V7.61719ZM82.2422 16.751C82.2285 16.8185 82.1946 16.8749 82.1396 16.9199L82.082 16.9551C82.017 16.9851 81.9293 17 81.8193 17H78.2295C77.9295 17 77.7793 16.8899 77.7793 16.6699C77.7793 16.5167 77.8794 16.4065 78.0791 16.3398L78.5596 16.2402C78.6995 16.2003 78.8025 16.1333 78.8691 16.04C78.9191 15.9651 78.9504 15.8658 78.9629 15.7422L78.9697 15.6104V10.6797C78.9697 10.0134 78.8028 9.51705 78.4697 9.19043C78.1431 8.8571 77.7058 8.69043 77.1592 8.69043C76.8259 8.69049 76.4656 8.77382 76.0791 8.94043C75.6926 9.10711 75.2827 9.37685 74.8496 9.75L74.6992 9.87891V15.6504C74.6993 15.8302 74.7332 15.9632 74.7998 16.0498C74.8665 16.1365 74.9632 16.2002 75.0898 16.2402L75.5498 16.3398C75.7496 16.4065 75.8496 16.5167 75.8496 16.6699C75.8496 16.8899 75.6994 17 75.3994 17H71.8291C71.6828 16.9999 71.5733 16.9731 71.5 16.9199C71.4333 16.8599 71.3994 16.7797 71.3994 16.6797C71.3995 16.6 71.4264 16.5337 71.4795 16.4805C71.5328 16.4205 71.6162 16.3732 71.7295 16.3398L72.21 16.2402C72.3098 16.2102 72.3907 16.1666 72.4531 16.1104L72.5098 16.0498C72.5763 15.9632 72.6094 15.8333 72.6094 15.6602V4.15039C72.6094 4.04047 72.5944 3.95268 72.5645 3.8877L72.5293 3.83008C72.4826 3.76345 72.4024 3.72639 72.2891 3.71973L71.6094 3.69043C71.4961 3.67043 71.4158 3.6365 71.3691 3.58984C71.3227 3.54325 71.2998 3.48328 71.2998 3.41016C71.2998 3.33016 71.3265 3.26329 71.3799 3.20996C71.4333 3.15004 71.5332 3.09642 71.6797 3.0498L73.3691 2.45996C73.5691 2.38665 73.7327 2.33314 73.8594 2.2998C73.986 2.26647 74.1033 2.25 74.21 2.25C74.3696 2.25008 74.4894 2.2966 74.5693 2.38965C74.656 2.47632 74.6992 2.59667 74.6992 2.75V9.16699C75.4017 8.55617 76.0215 8.12033 76.5596 7.86035C77.1529 7.57369 77.7229 7.42969 78.2695 7.42969C79.1027 7.42969 79.7758 7.69331 80.2891 8.21973C80.8024 8.73973 81.0596 9.45369 81.0596 10.3604V15.6104L81.0664 15.7461C81.0801 15.8737 81.1149 15.9748 81.1699 16.0498C81.2499 16.143 81.3561 16.2069 81.4893 16.2402L81.8193 16.3164L81.9199 16.3398C82.0331 16.3732 82.1166 16.4205 82.1699 16.4805C82.2229 16.5337 82.2499 16.6 82.25 16.6797L82.2422 16.751Z" fill="#005F2E"/>
<path d="M57.291 7.85742C57.453 7.945 57.5993 8.04563 57.7295 8.16016C58.2828 8.64682 58.5596 9.30012 58.5596 10.1201V15.5195C58.5596 15.7395 58.5997 15.9 58.6797 16C58.7663 16.1 58.8796 16.1504 59.0195 16.1504C59.1862 16.1504 59.3066 16.1134 59.3799 16.04C59.4532 15.9601 59.5129 15.8829 59.5596 15.8096C59.5929 15.7697 59.6269 15.7366 59.6602 15.71C59.7001 15.6768 59.7435 15.6602 59.7901 15.6602C59.8565 15.6602 59.9062 15.6839 59.9395 15.7305C59.9727 15.7771 59.9892 15.8433 59.9893 15.9297C59.9893 16.1163 59.9232 16.3099 59.7901 16.5098C59.6634 16.7097 59.473 16.8796 59.2197 17.0195C58.9731 17.1595 58.6593 17.2305 58.2793 17.2305C57.8641 17.2304 57.52 17.1495 57.2451 16.9922C56.8883 16.2594 56.6391 15.5042 56.4795 14.7422V13.1084C56.4083 13.0832 56.3367 13.0588 56.2647 13.0361C56.2561 12.8538 56.251 12.6718 56.251 12.4902C56.251 12.4789 56.251 12.4674 56.251 12.4561C56.3295 12.4778 56.4057 12.5009 56.4795 12.5254V10.2363C56.6485 9.42586 56.9143 8.6282 57.291 7.85742ZM66.1319 7.42969C66.8917 7.42973 67.5483 7.55008 68.1016 7.79004C68.6615 8.02337 69.0885 8.33717 69.3819 8.73047L69.4873 8.87891C69.7169 9.23027 69.831 9.60739 69.8311 10.0098C69.8311 10.323 69.7281 10.5865 69.5215 10.7998C69.3148 11.0065 69.0412 11.1104 68.7012 11.1104C68.3681 11.1103 68.1085 11.0165 67.9219 10.8301C67.7419 10.6368 67.6514 10.3835 67.6514 10.0703V9.75C67.6514 9.34162 67.5265 9.00198 67.2764 8.73145L67.1611 8.62012C66.8412 8.33351 66.3977 8.19043 65.8311 8.19043C65.3179 8.1905 64.8609 8.33662 64.461 8.62988C64.0677 8.91654 63.7579 9.32713 63.5313 9.86035C63.3047 10.3869 63.1914 11.0067 63.1914 11.7197C63.1914 12.5931 63.3385 13.3338 63.6319 13.9404C63.9318 14.5401 64.3384 14.9963 64.8516 15.3096C65.3715 15.6162 65.9612 15.7695 66.6211 15.7695C67.2544 15.7695 67.8017 15.6234 68.2617 15.3301C68.7283 15.0368 69.0618 14.6467 69.2617 14.1602C69.3415 14.0539 69.4077 13.9805 69.461 13.9404C69.5209 13.9004 69.5847 13.8799 69.6514 13.8799C69.7447 13.8799 69.8085 13.9169 69.8418 13.9902C69.8817 14.0635 69.8983 14.1502 69.8916 14.25C69.845 14.8032 69.6483 15.3065 69.3018 15.7598C68.9552 16.2063 68.4951 16.5634 67.9219 16.8301L67.7031 16.9238C67.1839 17.1281 66.6028 17.2305 65.961 17.2305C65.0345 17.2304 64.2142 17.037 63.501 16.6504C62.7945 16.2571 62.2418 15.7065 61.8418 15C61.4485 14.2867 61.251 13.4501 61.251 12.4902C61.251 11.5369 61.4516 10.6799 61.8516 9.91992C62.2582 9.15331 62.8251 8.54625 63.5518 8.09961C64.285 7.65312 65.1454 7.42969 66.1319 7.42969ZM72.6094 4.85254C72.8722 5.10769 73.1219 5.38892 73.3555 5.69727H73.3574C74.0103 6.55324 74.4828 7.555 74.6992 8.65723V9.16699C74.7241 9.14537 74.7478 9.12275 74.7725 9.10156C74.8009 9.32073 74.8186 9.54348 74.8262 9.76953L74.6992 9.87891V11.2842C74.6421 11.5588 74.566 11.8301 74.4707 12.0967C74.5637 12.3187 74.6398 12.5392 74.6992 12.7568V15.6504C74.6992 15.6879 74.7012 15.7234 74.7041 15.7568C74.6068 16.1846 74.4749 16.5997 74.3096 17H71.8291C71.6828 16.9999 71.5733 16.9731 71.5 16.9199C71.4333 16.8599 71.3994 16.7797 71.3994 16.6797C71.3995 16.6 71.4264 16.5337 71.4795 16.4805C71.5328 16.4205 71.6162 16.3732 71.7295 16.3398L72.21 16.2402C72.3431 16.2002 72.4432 16.1364 72.5098 16.0498C72.5763 15.9632 72.6094 15.8333 72.6094 15.6602V4.85254Z" fill="#005F2E"/>
<path d="M55.21 7.42969C56.3365 7.42973 57.1762 7.67355 57.7295 8.16016C58.2828 8.64682 58.5596 9.30012 58.5596 10.1201V15.5195C58.5596 15.7395 58.5997 15.9 58.6797 16C58.7663 16.1 58.8796 16.1504 59.0195 16.1504C59.1862 16.1504 59.3065 16.1134 59.3799 16.04C59.4532 15.9601 59.5129 15.8829 59.5596 15.8096C59.5928 15.7697 59.6269 15.7366 59.6602 15.71C59.7001 15.6768 59.7435 15.6602 59.79 15.6602C59.8565 15.6602 59.9062 15.6839 59.9395 15.7305C59.9727 15.7771 59.9892 15.8433 59.9893 15.9297C59.9893 16.1163 59.9232 16.3099 59.79 16.5098C59.6634 16.7097 59.4729 16.8796 59.2197 17.0195C58.9731 17.1595 58.6593 17.2305 58.2793 17.2305C57.7596 17.2304 57.3497 17.1068 57.0498 16.8604C56.799 16.6486 56.6544 16.3618 56.6133 16.001C56.2947 16.3216 55.9209 16.5858 55.4893 16.79C54.8694 17.0833 54.2158 17.2305 53.5293 17.2305C52.6896 17.2304 52.0029 17.0235 51.4697 16.6104C50.9431 16.1904 50.6797 15.6297 50.6797 14.9297C50.6798 14.1432 51.0297 13.4999 51.7295 13C52.4295 12.4933 53.4068 12.2402 54.6602 12.2402C55.1132 12.2403 55.5263 12.2835 55.8994 12.3701C56.1066 12.4137 56.3 12.4659 56.4795 12.5254V9.80957C56.4794 9.22998 56.3362 8.78705 56.0498 8.48047C55.7631 8.1738 55.3527 8.01953 54.8193 8.01953C54.3129 8.01958 53.933 8.1266 53.6797 8.33984C53.4264 8.54647 53.2998 8.79658 53.2998 9.08984V9.87012C53.2998 10.1901 53.1959 10.437 52.9893 10.6104C52.7827 10.7834 52.493 10.8701 52.1201 10.8701C51.8002 10.8701 51.5532 10.7867 51.3799 10.6201C51.2133 10.4535 51.13 10.2269 51.1299 9.94043C51.1299 9.53377 51.2894 9.13976 51.6094 8.75977C51.9294 8.3731 52.3933 8.05624 53 7.80957C53.6066 7.55635 54.3435 7.42969 55.21 7.42969ZM63.3389 8.23926C63.4629 8.75711 63.5324 9.28463 63.5518 9.81348C63.545 9.82891 63.5379 9.84471 63.5312 9.86035C63.3047 10.3869 63.1914 11.0067 63.1914 11.7197C63.1914 12.5931 63.3385 13.3338 63.6318 13.9404C63.9318 14.5401 64.3384 14.9963 64.8516 15.3096C64.8874 15.3307 64.9245 15.3495 64.9609 15.3691C64.983 15.5869 64.9892 15.7768 64.9893 15.9297C64.9893 16.3546 64.9427 16.7548 64.8643 17.1279C64.3736 17.0341 63.9186 16.8767 63.501 16.6504C62.7944 16.2571 62.2418 15.7065 61.8418 15C61.4485 14.2867 61.251 13.4501 61.251 12.4902C61.251 11.5369 61.4516 10.6799 61.8516 9.91992C62.2176 9.22989 62.7136 8.67005 63.3389 8.23926ZM46.4883 8.05957C47.2349 8.4729 47.8152 9.05004 48.2285 9.79004C48.6484 10.5299 48.8583 11.3832 48.8584 12.3496C48.8584 13.2829 48.6444 14.1204 48.2178 14.8604C47.7912 15.5934 47.2013 16.173 46.4482 16.5996C46.2822 16.693 46.1089 16.774 45.9307 16.8467C45.8481 16.5399 45.7868 16.2268 45.7451 15.9092C45.8158 15.8505 45.8845 15.7883 45.9482 15.7197C46.3014 15.3464 46.5351 14.84 46.6484 14.2002C46.7684 13.5603 46.7581 12.8069 46.6182 11.9404C46.5083 11.286 46.3477 10.7155 46.1367 10.2295C46.1361 10.2158 46.1353 10.2021 46.1348 10.1885L46.1299 9.94043L46.1387 9.60059C46.1674 9.03996 46.2655 8.5126 46.416 8.02148C46.44 8.03441 46.4645 8.04622 46.4883 8.05957ZM54.9492 12.8096C54.2894 12.8096 53.7727 12.9701 53.3994 13.29C53.0329 13.6033 52.8496 14.0367 52.8496 14.5898C52.8496 15.1232 52.9998 15.5367 53.2998 15.8301C53.6065 16.1167 53.9964 16.2598 54.4697 16.2598C54.9096 16.2598 55.3327 16.1598 55.7393 15.96C56.0124 15.8234 56.2587 15.6508 56.4795 15.4443V13.1084C56.2859 13.0399 56.0894 12.9796 55.8896 12.9297C55.603 12.8497 55.2892 12.8096 54.9492 12.8096Z" fill="#005F2E"/>
<path d="M43.9082 7.42969C44.8815 7.4297 45.7416 7.63961 46.4883 8.05957C47.2349 8.4729 47.8152 9.05004 48.2285 9.79004C48.6484 10.5299 48.8583 11.3832 48.8584 12.3496C48.8584 13.2829 48.6444 14.1204 48.2178 14.8604C47.7912 15.5934 47.2013 16.173 46.4482 16.5996C45.7016 17.0196 44.8312 17.2305 43.8379 17.2305C42.8647 17.2304 42.0044 17.0237 41.2578 16.6104C40.5179 16.1904 39.9385 15.61 39.5186 14.8701C39.0986 14.1302 38.8877 13.2802 38.8877 12.3203C38.8877 11.3736 39.1017 10.5331 39.5283 9.7998C39.9549 9.06663 40.5416 8.49026 41.2881 8.07031C42.0414 7.64365 42.9149 7.42969 43.9082 7.42969ZM51.7295 13C52.2721 12.6072 52.9813 12.3676 53.8564 12.2793C53.8566 12.3027 53.8584 12.3262 53.8584 12.3496L53.8535 12.6738C53.8501 12.7882 53.8439 12.9024 53.8369 13.0166C53.6742 13.0889 53.5281 13.1798 53.3994 13.29C53.0329 13.6033 52.8496 14.0367 52.8496 14.5898C52.8496 15.1048 52.9909 15.5066 53.2705 15.7979C53.1061 16.2559 52.906 16.706 52.667 17.1455C52.2066 17.0495 51.8073 16.8719 51.4697 16.6104C50.9431 16.1904 50.6797 15.6297 50.6797 14.9297C50.6798 14.1432 51.0297 13.4999 51.7295 13ZM37.21 13.8799C37.3033 13.8799 37.3671 13.9169 37.4004 13.9902C37.4403 14.0635 37.4568 14.1502 37.4502 14.25C37.4035 14.8032 37.2069 15.3065 36.8604 15.7598C36.5138 16.2063 36.0536 16.5634 35.4805 16.8301C35.3249 16.9024 35.1624 16.9629 34.9951 17.0156C34.7819 16.6042 34.6026 16.1844 34.4541 15.7588C34.9724 15.7219 35.4281 15.5802 35.8203 15.3301C36.2869 15.0368 36.6203 14.6467 36.8203 14.1602C36.9 14.0539 36.9663 13.9805 37.0195 13.9404C37.0795 13.9004 37.1433 13.8799 37.21 13.8799ZM44.708 8.53027C44.2348 8.27033 43.715 8.17985 43.1484 8.25977C42.5951 8.33977 42.1414 8.5702 41.7881 8.9502C41.4415 9.32347 41.2079 9.8299 41.0879 10.4697C40.9746 11.103 40.9911 11.8532 41.1377 12.7197C41.2777 13.5862 41.5113 14.3097 41.8379 14.8896C42.1712 15.4629 42.5715 15.8796 43.0381 16.1396C43.5113 16.3929 44.0312 16.4803 44.5977 16.4004C45.151 16.3204 45.6016 16.0931 45.9482 15.7197C46.3014 15.3464 46.5351 14.84 46.6484 14.2002C46.7684 13.5603 46.7581 12.8069 46.6182 11.9404C46.4715 11.0671 46.2349 10.3429 45.9082 9.76953C45.5816 9.19637 45.1812 8.78356 44.708 8.53027ZM35.04 7.58203C35.2594 7.63667 35.4662 7.70592 35.6602 7.79004C36.2201 8.02337 36.6471 8.33717 36.9404 8.73047C37.2401 9.1236 37.3896 9.55005 37.3896 10.0098C37.3896 10.323 37.2867 10.5865 37.0801 10.7998C36.8734 11.0065 36.5998 11.1104 36.2598 11.1104C35.9267 11.1103 35.6671 11.0165 35.4805 10.8301C35.3005 10.6368 35.21 10.3835 35.21 10.0703V9.75C35.21 9.28333 35.0464 8.90678 34.7197 8.62012C34.6819 8.58626 34.6418 8.55525 34.6006 8.52539C34.7286 8.2067 34.8743 7.89167 35.04 7.58203ZM52.8623 7.86914C53.0356 8.22626 53.1841 8.58898 53.3096 8.95605C53.3034 8.99963 53.2998 9.04417 53.2998 9.08984V9.87012C53.2998 10.1901 53.1959 10.437 52.9893 10.6104C52.7827 10.7834 52.493 10.8701 52.1201 10.8701C51.8002 10.8701 51.5532 10.7867 51.3799 10.6201C51.2133 10.4535 51.13 10.2269 51.1299 9.94043C51.1299 9.53377 51.2894 9.13976 51.6094 8.75977C51.9047 8.40291 52.3228 8.10675 52.8623 7.86914Z" fill="#005F2E"/>
<path d="M33.6904 7.42969C34.4502 7.42973 35.1069 7.55008 35.6602 7.79004C36.2201 8.02337 36.6471 8.33717 36.9404 8.73047L37.0459 8.87891C37.2755 9.23027 37.3896 9.60739 37.3896 10.0098C37.3896 10.323 37.2867 10.5865 37.0801 10.7998C36.8734 11.0065 36.5998 11.1104 36.2598 11.1104C35.9267 11.1103 35.6671 11.0165 35.4805 10.8301C35.3005 10.6368 35.21 10.3835 35.21 10.0703V9.75C35.21 9.34162 35.0851 9.00198 34.835 8.73145L34.7197 8.62012C34.3997 8.33351 33.9563 8.19043 33.3896 8.19043C32.8765 8.1905 32.4194 8.33662 32.0195 8.62988C31.6263 8.91654 31.3165 9.32713 31.0898 9.86035C30.8633 10.3869 30.75 11.0067 30.75 11.7197C30.75 12.5931 30.8971 13.3338 31.1904 13.9404C31.4904 14.5401 31.897 14.9963 32.4102 15.3096C32.9301 15.6162 33.5198 15.7695 34.1797 15.7695C34.813 15.7695 35.3603 15.6234 35.8203 15.3301C36.2869 15.0368 36.6203 14.6467 36.8203 14.1602C36.9 14.0539 36.9663 13.9805 37.0195 13.9404C37.0795 13.9004 37.1433 13.8799 37.21 13.8799C37.3033 13.8799 37.3671 13.9169 37.4004 13.9902C37.4403 14.0635 37.4568 14.1502 37.4502 14.25C37.4035 14.8032 37.2069 15.3065 36.8604 15.7598C36.5138 16.2063 36.0536 16.5634 35.4805 16.8301L35.2617 16.9238C34.7425 17.1281 34.1614 17.2305 33.5195 17.2305C32.5931 17.2304 31.7728 17.037 31.0596 16.6504C30.353 16.2571 29.8004 15.7065 29.4004 15C29.0071 14.2867 28.8096 13.4501 28.8096 12.4902C28.8096 11.5369 29.0102 10.6799 29.4102 9.91992C29.8168 9.15331 30.3837 8.54625 31.1104 8.09961C31.8436 7.65312 32.704 7.42969 33.6904 7.42969ZM42.0117 7.74121C42.1047 8.01245 42.1816 8.29124 42.2412 8.57715C42.0753 8.67906 41.9243 8.8037 41.7881 8.9502C41.4415 9.32347 41.2079 9.8299 41.0879 10.4697C40.9746 11.103 40.9911 11.8532 41.1377 12.7197C41.2777 13.5862 41.5113 14.3097 41.8379 14.8896C41.9818 15.1372 42.1398 15.3548 42.3086 15.5439C42.2156 16.0128 42.081 16.4671 41.9072 16.9043C41.6824 16.8214 41.4652 16.7251 41.2578 16.6104C40.5179 16.1904 39.9385 15.61 39.5186 14.8701C39.0986 14.1302 38.8877 13.2802 38.8877 12.3203C38.8877 11.3736 39.1017 10.5331 39.5283 9.7998C39.9549 9.06663 40.5416 8.49026 41.2881 8.07031C41.5179 7.94017 41.7596 7.83166 42.0117 7.74121Z" fill="#005F2E"/>
<path d="M18.4844 11.5C18.4844 11.6947 18.4266 11.8851 18.3185 12.0469C18.2103 12.2088 18.0566 12.335 17.8767 12.4095C17.6968 12.484 17.4989 12.5035 17.308 12.4655C17.117 12.4275 16.9416 12.3338 16.8039 12.1961C16.6663 12.0584 16.5725 11.883 16.5345 11.6921C16.4966 11.5011 16.5161 11.3032 16.5906 11.1233C16.6651 10.9435 16.7912 10.7897 16.9531 10.6816C17.115 10.5734 17.3053 10.5157 17.5 10.5157C17.7611 10.5157 18.0115 10.6194 18.1961 10.804C18.3807 10.9886 18.4844 11.239 18.4844 11.5ZM13.8906 10.5157C13.6959 10.5157 13.5056 10.5734 13.3437 10.6816C13.1819 10.7897 13.0557 10.9435 12.9812 11.1233C12.9067 11.3032 12.8872 11.5011 12.9252 11.6921C12.9631 11.883 13.0569 12.0584 13.1946 12.1961C13.3322 12.3338 13.5076 12.4275 13.6986 12.4655C13.8895 12.5035 14.0875 12.484 14.2673 12.4095C14.4472 12.335 14.6009 12.2088 14.7091 12.0469C14.8173 11.8851 14.875 11.6947 14.875 11.5C14.875 11.239 14.7713 10.9886 14.5867 10.804C14.4021 10.6194 14.1517 10.5157 13.8906 10.5157ZM21.1094 10.5157C20.9147 10.5157 20.7244 10.5734 20.5625 10.6816C20.4006 10.7897 20.2744 10.9435 20.1999 11.1233C20.1254 11.3032 20.1059 11.5011 20.1439 11.6921C20.1819 11.883 20.2757 12.0584 20.4133 12.1961C20.551 12.3338 20.7264 12.4275 20.9173 12.4655C21.1083 12.5035 21.3062 12.484 21.4861 12.4095C21.6659 12.335 21.8197 12.2088 21.9279 12.0469C22.036 11.8851 22.0938 11.6947 22.0938 11.5C22.0938 11.239 21.99 10.9886 21.8054 10.804C21.6208 10.6194 21.3704 10.5157 21.1094 10.5157ZM26.0312 11.5C26.0316 12.9729 25.6506 14.4208 24.9253 15.7028C24.2 16.9847 23.1552 18.0571 21.8925 18.8154C20.6299 19.5738 19.1924 19.9923 17.72 20.0303C16.2475 20.0683 14.7904 19.7244 13.4903 19.0322L10.6971 19.9632C10.4659 20.0403 10.2177 20.0515 9.98046 19.9955C9.7432 19.9395 9.52622 19.8186 9.35385 19.6462C9.18147 19.4738 9.06051 19.2568 9.00451 19.0196C8.94852 18.7823 8.95971 18.5341 9.03684 18.3029L9.96789 15.5097C9.35934 14.3656 9.01944 13.0978 8.974 11.8027C8.92855 10.5076 9.17875 9.21914 9.70561 8.03515C10.2325 6.85116 11.0221 5.80276 12.0147 4.96953C13.0072 4.13629 14.1765 3.54012 15.4339 3.22627C16.6912 2.91241 18.0035 2.88913 19.2712 3.15818C20.5389 3.42722 21.7286 3.98153 22.7501 4.77903C23.7715 5.57653 24.5979 6.59626 25.1664 7.76081C25.735 8.92536 26.0307 10.2041 26.0312 11.5ZM24.7188 11.5C24.7184 10.3927 24.4634 9.30031 23.9733 8.30734C23.4833 7.31436 22.7713 6.44744 21.8926 5.77363C21.0139 5.09982 19.992 4.6372 18.9058 4.42155C17.8197 4.20591 16.6985 4.24301 15.6291 4.53001C14.5596 4.817 13.5705 5.34619 12.7382 6.07662C11.906 6.80706 11.2529 7.71916 10.8296 8.74237C10.4063 9.76557 10.224 10.8725 10.2969 11.9774C10.3698 13.0823 10.6959 14.1556 11.25 15.1143C11.2965 15.1948 11.3254 15.2843 11.3348 15.3768C11.3441 15.4692 11.3337 15.5627 11.3042 15.6508L10.2812 18.7188L13.3492 17.6959C13.416 17.6731 13.4862 17.6614 13.5568 17.6614C13.672 17.6616 13.7852 17.6922 13.8849 17.75C14.9823 18.3849 16.2276 18.7196 17.4954 18.7204C18.7633 18.7212 20.009 18.3881 21.1072 17.7546C22.2054 17.121 23.1174 16.2094 23.7514 15.1114C24.3854 14.0135 24.719 12.7679 24.7188 11.5Z" fill="#005F2E"/>
</svg>
